<?xml version="1.0" encoding="utf-8"?>
<!-- Generator: Adobe Illustrator 17.1.0, SVG Export Plug-In . SVG Version: 6.00 Build 0)  -->
<!DOCTYPE svg PUBLIC "-//W3C//DTD SVG 1.1//EN" "http://www.w3.org/Graphics/SVG/1.1/DTD/svg11.dtd">
<svg version="1.1" id="Layer_5" xmlns="http://www.w3.org/2000/svg" xmlns:xlink="http://www.w3.org/1999/xlink" x="0px" y="0px"
	 viewBox="0 0 512 512" enable-background="new 0 0 512 512" xml:space="preserve">
<g>
	<g>
		<g>
			<path fill="#FF0000" d="M392,392c-1.5,0-3-0.3-4.4-1C341,367.6,312,320.8,312,268.7v-52.5l7.7-0.3c24.3-0.9,47.8-8.3,67.9-21.5
				l4.4-2.9l4.4,2.9c20.1,13.2,43.6,20.7,67.9,21.5l7.7,0.3v52.5c0,52.1-29,99-75.6,122.3C395.1,391.6,393.6,392,392,392z
				 M389.3,376.6c0,0-0.1,0-0.1,0.1C389.2,376.7,389.3,376.6,389.3,376.6z"/>
		</g>
	</g>
	<g>
		<path fill="#FF0000" d="M104,152v72v32h152v-32h8v-72H104z"/>
	</g>
	<g>
		<path fill="#FFFFFF" d="M392,232c-17.6,0-32,14.4-32,32v48c0,17.6,14.4,32,32,32s32-14.4,32-32v-48C424,246.4,409.6,232,392,232z
			 M392,248c8.8,0,16,7.2,16,16v16h-32v-16C376,255.2,383.2,248,392,248z M392,328c-8.8,0-16-7.2-16-16v-16h32v16
			C408,320.8,400.8,328,392,328z"/>
		<path d="M376,72H104v64h272V72z M360,120H120V88h240V120z"/>
		<path d="M104,152h16v16h-16V152z"/>
		<path d="M136,152h128v16H136V152z"/>
		<path d="M104,184h160v16H104V184z"/>
		<path d="M104,216h160v16H104V216z"/>
		<path d="M104,248h152v16H104V248z"/>
		<path d="M504,184h-32V8H8v320h282.7c4.6,12.3,10.6,23.9,17.8,34.7l-23.6,106.4l46.6-18.7l21.4,53.5l25.6-82.1
			c4.3,1.5,8.9,2.3,13.4,2.3s9.1-0.8,13.4-2.3l25.6,82.1l21.4-53.5l46.6,18.7l-23.6-106.4c18.3-27.2,28.5-59.7,28.5-94L504,184z
			 M24,312V24h432v159c-5.4-0.7-10.8-1.8-16-3.3V72h-8c-13.2,0-24-10.8-24-24v-8H72v8c0,13.2-10.8,24-24,24h-8v192h8
			c13.2,0,24,10.8,24,24v8h210.3c0.9,5.4,2,10.8,3.4,16H24z M280.4,280H87.2C84,264.4,71.6,252,56,248.8V87.2
			C71.6,84,84,71.6,87.2,56h305.6c3.2,15.6,15.5,28,31.2,31.2v86.1c-9.6-4.8-18.5-11.1-26.3-18.9l-5.6-5.7l-5.7,5.7
			c-19.1,19.1-44.6,29.7-71.6,29.7H280v84.7C280,272.5,280.1,276.2,280.4,280L280.4,280z M351.1,456.1l-10.6-26.5l-33.4,13.3
			l14.2-63.7c12,13.8,26.4,25.8,42.8,35.3L351.1,456.1z M476.9,442.9l-33.4-13.3l-10.6,26.5l-13-41.6c16.4-9.5,30.8-21.5,42.8-35.3
			L476.9,442.9z M488,268.7c0,58.2-32.4,110.6-84.4,136.6c-7.2,3.6-16,3.6-23.2,0c-52.1-26-84.4-78.4-84.4-136.6V200h18.7
			c28.7,0,55.9-10.3,77.3-29c21.4,18.8,48.5,29,77.3,29H488L488,268.7z"/>
	</g>
</g>
</svg>
