<?xml version="1.0" encoding="utf-8"?>
<!-- Generator: Adobe Illustrator 19.0.1, SVG Export Plug-In . SVG Version: 6.00 Build 0)  -->
<svg version="1.1" id="Layer_1" xmlns="http://www.w3.org/2000/svg" xmlns:xlink="http://www.w3.org/1999/xlink" x="0px" y="0px"
	 viewBox="0 0 84.4 84.4" style="enable-background:new 0 0 84.4 84.4;" xml:space="preserve">
<style type="text/css">
	.st0{display:none;fill:#231F20;}
	.st1{fill:#FFFFFF;}
</style>
<rect x="-276.3" y="-240" class="st0" width="841.9" height="595.3"/>
<g>
	<g>
		<path class="st1" d="M35.2,71.3V41.8c-2.5,0-4.9,0-7.4,0V32h7.4v-7.4c0-9.5,6.7-12.3,11-12.3c2.9,0,6.6,0,9.4,0v9.8h-5.3
			c-2,0-3.3,0.8-3.3,2.5c0,2,0,7,0,7s9-0.1,9.4-0.1c-0.4,3.3-0.8,7-1.2,10.2h-8.2v29.5C42.6,71.3,38.9,71.3,35.2,71.3z"/>
	</g>
</g>
<g>
	<path class="st1" d="M66,84H18.4C8.3,84,0,75.8,0,65.6V18.1C0,7.9,8.3-0.3,18.4-0.3H66c10.2,0,18.4,8.3,18.4,18.4v47.5
		C84.4,75.8,76.1,84,66,84z M18.4,3C10.1,3,3.4,9.8,3.4,18.1v47.5c0,8.3,6.8,15.1,15.1,15.1H66c8.3,0,15.1-6.8,15.1-15.1V18.1
		C81,9.8,74.3,3,66,3H18.4z"/>
</g>
</svg>
