<svg fill="#e30613" id="Capa_1" enable-background="new 0 0 512.037 512.037" height="512" viewBox="0 0 512.037 512.037" width="512" xmlns="http://www.w3.org/2000/svg"><g><path d="m147.28 274.168-136.117 164.517c7.159 14.802 18.306 25.458 34.872 31.618l155.268-187.663c-14.519-5.12-32.628-7.981-54.023-8.472z"/><path d="m43.005 281.085c-4.275 1.577-8.671 3.57-12.986 6.456v-184.234c0-20.717 16.854-37.571 37.571-37.571s37.572 16.854 37.572 37.571v23.815h30v-23.815c0-37.259-30.313-67.571-67.572-67.571s-67.571 30.313-67.571 67.571v242.303s-.317 40.886 1.659 57.478l107.135-129.488c-28.153-.059-49.411 1.437-65.808 7.485z"/><path d="m310.735 282.64 155.267 187.663c16.566-6.16 27.713-16.816 34.872-31.618l-136.116-164.517c-21.396.491-39.504 3.352-54.023 8.472z"/><path d="m512.019 103.307c0-37.259-30.313-67.571-67.571-67.571-37.259 0-67.572 30.313-67.572 67.571v23.815h30v-23.815c0-20.717 16.854-37.571 37.572-37.571 20.717 0 37.571 16.854 37.571 37.571v184.234c-4.316-2.886-8.711-4.879-12.986-6.456-16.397-6.048-37.655-7.544-65.807-7.486l107.134 129.488c1.976-16.592 1.659-57.478 1.659-57.478z"/><path d="m274.892 309.882c-3.878 7.052-5.879 15.146-6.062 23.978-4.053-.805-8.199-1.235-12.387-1.235-.162 0-.325.001-.487.002-4.315.033-8.581.518-12.743 1.404-.16-8.898-2.165-17.05-6.068-24.148-2.43-4.419-5.593-8.444-9.459-12.068l-147.663 178.471c26.177.413 53.638-7.504 79.803-23.09 25.902-15.432 48.684-37.33 64.146-61.661 4.634-7.292 8.435-14.505 11.409-21.548 5.869-4.718 13.08-7.302 20.805-7.361 7.341-.03 14.284 2.201 20.068 6.409 3.029 7.344 6.968 14.881 11.811 22.501 15.463 24.331 38.244 46.229 64.146 61.661 26.165 15.586 53.626 23.503 79.803 23.09l-147.662-178.473c-3.867 3.624-7.03 7.649-9.46 12.068z"/></g></svg>