<?xml version="1.0" encoding="utf-8"?>
<!-- Generator: Adobe Illustrator 19.0.1, SVG Export Plug-In . SVG Version: 6.00 Build 0)  -->
<svg version="1.1" id="Layer_1" xmlns="http://www.w3.org/2000/svg" xmlns:xlink="http://www.w3.org/1999/xlink" x="0px" y="0px"
	 viewBox="0 0 84.4 84.4" style="enable-background:new 0 0 84.4 84.4;" xml:space="preserve">
<style type="text/css">
	.st0{display:none;fill:#231F20;}
	.st1{fill:#FFFFFF;}
</style>
<rect x="-572.6" y="-240" class="st0" width="841.9" height="595.3"/>
<g>
	<g>
		<path class="st1" d="M-149.4,33.8c0,1.4,0,2.7,0,4c0,0.7,0,1.4,0.2,2.1c0.1,0.4,0.3,0.8,0.7,1.1c0.2,0.1,0.4,0.2,0.6,0.1
			c0.4-0.1,0.7-0.3,1-0.6c0.7-0.6,1.3-1.3,1.8-2.1c2-2.6,3.5-5.5,4.7-8.6c0.2-0.5,0.4-1,0.7-1.5c0.1-0.4,0.4-0.8,0.8-0.9
			c0.2-0.1,0.5-0.1,0.7-0.1c0.1,0,0.3,0,0.4,0c2.6,0,5.3,0,7.9,0c0.6,0,1.1,0,1.6,0c0.3,0,0.6,0.1,0.8,0.2c0.4,0.2,0.6,0.5,0.6,0.9
			c0,0.6-0.1,1.1-0.3,1.6c-0.5,1.3-1.2,2.5-2,3.7c-1.5,2.3-3.2,4.4-4.8,6.6c-0.5,0.7-1,1.5-1.5,2.2c-0.3,0.4-0.4,0.9-0.4,1.4
			c0,0.5,0.3,0.9,0.7,1.3c0.6,0.6,1.2,1.2,1.8,1.8c1.6,1.6,3.2,3.1,4.7,4.8c0.7,0.8,1.3,1.6,1.7,2.6c0.1,0.2,0.2,0.5,0.2,0.8
			c0.1,0.7-0.1,1.2-0.7,1.6c-0.5,0.4-1.2,0.6-1.8,0.7c-1.9,0-3.1,0.1-7,0.1c-1.9,0-2.9-0.5-4.1-1.4c-0.9-0.7-1.6-1.6-2.4-2.4
			c-0.8-0.8-1.6-1.7-2.4-2.6c-0.3-0.4-0.8-0.7-1.2-0.9c-0.7-0.4-1.3-0.2-1.8,0.3c-0.5,0.5-0.7,1-0.9,1.7c-0.3,0.9-0.4,1.9-0.4,2.8
			c0,0.2,0,0.5-0.1,0.7c-0.2,1.1-1.1,1.6-2.4,1.6c-1.5,0-2.1,0-3.3,0c-1.7,0-3.5-0.4-5.2-1c-3.2-1.2-5.8-3.1-8.1-5.6
			c-2.3-2.4-4.2-5.1-5.9-8c-2.7-4.4-5-8.9-7.1-13.6c-0.1-0.3-0.2-0.7-0.2-1c0-0.3,0.1-0.5,0.4-0.6c0.4-0.2,0.8-0.3,1.3-0.3
			c2.6,0,5.2,0,7.9,0c0.9,0,1.7,0.6,2.1,1.6c0.8,1.8,1.6,3.5,2.5,5.2c1,1.9,2.2,3.7,3.5,5.5c0.5,0.6,1,1.2,1.6,1.6
			c0.5,0.3,0.9,0.4,1.4,0.1c0.3-0.1,0.4-0.4,0.6-0.7c0.3-0.7,0.4-1.4,0.5-2.1c0.2-1.7,0.2-3.4,0.1-5.1c0-1-0.1-2-0.3-3
			c0-0.2-0.1-0.5-0.2-0.7c-0.1-0.5-0.4-0.8-0.8-1.1c-0.6-0.3-1.2-0.6-1.8-0.6c-0.2,0-0.2-0.1-0.2-0.3c0.1-0.1,0.2-0.3,0.3-0.4
			c0.6-0.7,1.4-1,2.2-1.2c1.2-0.1,2.5-0.2,3.8-0.2c1.4,0,2.8,0,4.2,0.1c0.6,0,1.2,0.1,1.8,0.3c1,0.2,1.6,0.9,1.7,2
			c0.1,0.8,0.1,1.6,0.1,2.3C-149.3,31.8-149.3,32.8-149.4,33.8z"/>
	</g>
</g>
<g>
	<g>
		<circle class="st1" cx="42.3" cy="42.2" r="8.8"/>
	</g>
	<g>
		<path class="st1" d="M68.5,29.7c-0.2-7.7-6-13.5-13.8-13.7c-8.3-0.2-16.6-0.2-24.9,0c-6.9,0.2-12.1,4.8-13.4,11.4
			c-0.3,1.4-0.4,2.8-0.6,4.2c0,7.1,0,14.1,0,21.2c0.1,0.6,0.2,1.2,0.2,1.8c0.5,7.7,6.1,13.6,13.8,13.8c8.3,0.2,16.6,0.2,24.9,0
			c7.7-0.2,13.6-6,13.8-13.8C68.7,46.3,68.7,38,68.5,29.7z M42.2,55.8c-7.6,0-13.5-6-13.6-13.6c0-7.6,6-13.7,13.6-13.7
			c7.6,0,13.6,6,13.6,13.6C55.9,49.8,49.8,55.8,42.2,55.8z M56.4,31.2c-1.7,0-3.2-1.5-3.2-3.2c0-1.8,1.5-3.2,3.2-3.1
			c1.8,0,3.2,1.4,3.2,3.2C59.6,29.8,58.2,31.3,56.4,31.2z"/>
	</g>
</g>
<g>
	<path class="st1" d="M-130.5,84H-178c-10.2,0-18.4-8.3-18.4-18.4V18.1c0-10.2,8.3-18.4,18.4-18.4h47.5c10.2,0,18.4,8.3,18.4,18.4
		v47.5C-112.1,75.8-120.4,84-130.5,84z M-178,3c-8.3,0-15.1,6.8-15.1,15.1v47.5c0,8.3,6.8,15.1,15.1,15.1h47.5
		c8.3,0,15.1-6.8,15.1-15.1V18.1c0-8.3-6.8-15.1-15.1-15.1H-178z"/>
</g>
<g>
	<path class="st1" d="M66,84.4H18.4C8.3,84.4,0,76.1,0,66V18.4C0,8.3,8.3,0,18.4,0H66c10.2,0,18.4,8.3,18.4,18.4V66
		C84.4,76.1,76.1,84.4,66,84.4z M18.4,3.4c-8.3,0-15.1,6.8-15.1,15.1V66c0,8.3,6.8,15.1,15.1,15.1H66C74.3,81,81,74.3,81,66V18.4
		C81,10.1,74.3,3.4,66,3.4H18.4z"/>
</g>
<g>
	<path class="st1" d="M-30.7,23.5c-7.3,0-39,0-47.6,0c-2.5,0-3.5,1-3.5,3.5c0,9.9,0,19.8,0,29.6c0,2.5,1,3.5,3.5,3.5
		c7.3,0,39,0,47.6,0c2.5,0,3.5-1,3.5-3.5c0-9.9,0-19.8,0-29.6C-27.2,24.5-28.2,23.5-30.7,23.5z M-39.7,29.4c0,0-13,8.2-14.6,9.2
		c-0.2,0.1-0.4,0.1-0.5,0c-1.6-1-14.4-9.2-14.4-9.2C-65,29.4-45.3,29.4-39.7,29.4z M-33,54.5l-19.5,0c-7.7,0-23.4,0-23.4,0
		c0-7.5,0-15,0-22.5c1.2,0.8,19.5,12.7,19.5,12.7c0,0,0,0,0,0c1.2,0.8,2.4,0.9,3.6,0.2c0.1-0.1,0.2-0.1,0.3-0.2
		c0,0,18.3-11.9,19.5-12.7C-33,39.5-33,47-33,54.5z"/>
</g>
<g>
	<path class="st1" d="M-30.7,84h-47.5c-10.2,0-18.4-8.3-18.4-18.4V18.1c0-10.2,8.3-18.4,18.4-18.4h47.5c10.2,0,18.4,8.3,18.4,18.4
		v47.5C-12.3,75.8-20.5,84-30.7,84z M-78.2,3c-8.3,0-15.1,6.8-15.1,15.1v47.5c0,8.3,6.8,15.1,15.1,15.1h47.5
		c8.3,0,15.1-6.8,15.1-15.1V18.1C-15.7,9.8-22.4,3-30.7,3H-78.2z"/>
</g>
<g id="Kb8gMt_2_">
	<g>
		<g>
			<path class="st1" d="M-352.8,13.4c0.9,0.2,1.8,0.3,2.7,0.5c5.6,1.5,9.9,6.4,10.6,12.2c0.8,6.6-2.6,12.6-8.8,15.3
				c-6.5,2.8-14.4,0.3-18-5.8c-4.1-6.8-2.3-15.3,4.2-19.7c1.9-1.3,4.1-2.1,6.5-2.4c0.2,0,0.4-0.1,0.5-0.1
				C-354.3,13.4-353.5,13.4-352.8,13.4z M-361,28c0,3.9,3.1,7.1,7.1,7.1c4,0,7.1-3.1,7.1-7.1c0-4-3.1-7.2-7.1-7.2
				C-357.8,20.8-361,24-361,28z"/>
		</g>
		<g>
			<path class="st1" d="M-356.8,54c-1.5-0.3-2.9-0.5-4.3-0.8c-3.3-0.7-6.2-2.2-8.7-4.4c-1-0.9-1.7-2.1-1.3-3.5
				c0.4-1.4,1.2-2.4,2.6-2.8c1-0.2,1.9,0,2.8,0.5c1.2,0.7,2.3,1.5,3.5,2c6.7,2.9,13.1,2.4,19.3-1.6c0.8-0.6,1.7-1,2.8-1
				c1.6,0,2.6,0.9,3.2,2.3c0.6,1.4,0.4,2.6-0.7,3.6c-2.5,2.5-5.6,4.1-9,4.9c-1.3,0.3-2.6,0.5-3.9,0.7c-0.1,0-0.2,0.1-0.5,0.1
				c0.4,0.4,0.6,0.7,1,1c3.2,3.2,6.4,6.4,9.5,9.6c1,1,1.6,2.2,1.1,3.7c-0.5,1.5-1.6,2.5-3.2,2.7c-1.1,0.2-2-0.3-2.8-1
				c-2.4-2.4-4.8-4.8-7.2-7.2c-0.2-0.2-0.5-0.5-0.7-0.7c-0.5-0.4-0.8-0.4-1.3,0c-0.2,0.2-0.5,0.4-0.7,0.7c-2.3,2.3-4.7,4.7-7,7
				c-1,1-2.1,1.6-3.5,1.1c-1.5-0.5-2.5-1.5-2.8-3.1c-0.2-1,0.1-1.9,0.8-2.7c0.2-0.3,0.5-0.5,0.7-0.7c3.1-3.1,6.2-6.2,9.3-9.3
				C-357.4,54.7-357.1,54.4-356.8,54z"/>
		</g>
	</g>
</g>
<g>
	<path class="st1" d="M-330.1,84.4h-47.5c-10.2,0-18.4-8.3-18.4-18.4V18.4c0-10.2,8.3-18.4,18.4-18.4h47.5
		c10.2,0,18.4,8.3,18.4,18.4V66C-311.7,76.1-320,84.4-330.1,84.4z M-377.6,3.4c-8.3,0-15.1,6.8-15.1,15.1V66
		c0,8.3,6.8,15.1,15.1,15.1h47.5c8.3,0,15.1-6.8,15.1-15.1V18.4c0-8.3-6.8-15.1-15.1-15.1H-377.6z"/>
</g>
<g>
	<g>
		<path class="st1" d="M-261,71.3V41.8c-2.5,0-4.9,0-7.4,0V32h7.4v-7.4c0-9.5,6.7-12.3,11-12.3c2.9,0,6.6,0,9.4,0v9.8h-5.3
			c-2,0-3.3,0.8-3.3,2.5c0,2,0,7,0,7s9-0.1,9.4-0.1c-0.4,3.3-0.8,7-1.2,10.2h-8.2v29.5C-253.7,71.3-257.4,71.3-261,71.3z"/>
	</g>
</g>
<g>
	<path class="st1" d="M-230.3,84h-47.5c-10.2,0-18.4-8.3-18.4-18.4V18.1c0-10.2,8.3-18.4,18.4-18.4h47.5c10.2,0,18.4,8.3,18.4,18.4
		v47.5C-211.9,75.8-220.2,84-230.3,84z M-277.8,3c-8.3,0-15.1,6.8-15.1,15.1v47.5c0,8.3,6.8,15.1,15.1,15.1h47.5
		c8.3,0,15.1-6.8,15.1-15.1V18.1c0-8.3-6.8-15.1-15.1-15.1H-277.8z"/>
</g>
</svg>
