<?xml version="1.0" encoding="utf-8"?>
<!-- Generator: Adobe Illustrator 19.0.1, SVG Export Plug-In . SVG Version: 6.00 Build 0)  -->
<svg version="1.1" id="Layer_1" xmlns="http://www.w3.org/2000/svg" xmlns:xlink="http://www.w3.org/1999/xlink" x="0px" y="0px"
	 viewBox="0 0 84.4 84.4" style="enable-background:new 0 0 84.4 84.4;" xml:space="preserve">
<style type="text/css">
	.st0{display:none;fill:#231F20;}
	.st1{fill:#FFFFFF;}
</style>
<rect x="-475.9" y="-240" class="st0" width="841.9" height="595.3"/>
<g>
	<path class="st1" d="M66,23.5c-7.3,0-39,0-47.6,0c-2.5,0-3.5,1-3.5,3.5c0,9.9,0,19.8,0,29.6c0,2.5,1,3.5,3.5,3.5c7.3,0,39,0,47.6,0
		c2.5,0,3.5-1,3.5-3.5c0-9.9,0-19.8,0-29.6C69.5,24.5,68.5,23.5,66,23.5z M56.9,29.4c0,0-13,8.2-14.6,9.2c-0.2,0.1-0.4,0.1-0.5,0
		c-1.6-1-14.4-9.2-14.4-9.2C31.7,29.4,51.4,29.4,56.9,29.4z M63.7,54.5l-19.5,0c-7.7,0-23.4,0-23.4,0c0-7.5,0-15,0-22.5
		c1.2,0.8,19.5,12.7,19.5,12.7c0,0,0,0,0,0c1.2,0.8,2.4,0.9,3.6,0.2c0.1-0.1,0.2-0.1,0.3-0.2c0,0,18.3-11.9,19.5-12.7
		C63.7,39.5,63.7,47,63.7,54.5z"/>
</g>
<g>
	<path class="st1" d="M66,84H18.4C8.3,84,0,75.8,0,65.6V18.1C0,7.9,8.3-0.3,18.4-0.3H66c10.2,0,18.4,8.3,18.4,18.4v47.5
		C84.4,75.8,76.1,84,66,84z M18.4,3C10.1,3,3.4,9.8,3.4,18.1v47.5c0,8.3,6.8,15.1,15.1,15.1H66c8.3,0,15.1-6.8,15.1-15.1V18.1
		C81,9.8,74.3,3,66,3H18.4z"/>
</g>
</svg>
