<?xml version="1.0" encoding="utf-8"?>
<!-- Generator: Adobe Illustrator 19.0.1, SVG Export Plug-In . SVG Version: 6.00 Build 0)  -->
<svg version="1.1" id="Layer_1" xmlns="http://www.w3.org/2000/svg" xmlns:xlink="http://www.w3.org/1999/xlink" x="0px" y="0px"
	 viewBox="0 0 84.4 84.4" style="enable-background:new 0 0 84.4 84.4;" xml:space="preserve">
<style type="text/css">
	.st0{display:none;fill:#231F20;}
	.st1{fill:#FFFFFF;}
</style>
<rect x="-176.5" y="-240" class="st0" width="841.9" height="595.3"/>
<g id="Kb8gMt_2_">
	<g>
		<g>
			<path class="st1" d="M43.3,13.4c0.9,0.2,1.8,0.3,2.7,0.5c5.6,1.5,9.9,6.4,10.6,12.2c0.8,6.6-2.6,12.6-8.8,15.3
				c-6.5,2.8-14.4,0.3-18-5.8c-4.1-6.8-2.3-15.3,4.2-19.7c1.9-1.3,4.1-2.1,6.5-2.4c0.2,0,0.4-0.1,0.5-0.1
				C41.8,13.4,42.6,13.4,43.3,13.4z M35.1,28c0,3.9,3.1,7.1,7.1,7.1c4,0,7.1-3.1,7.1-7.1c0-4-3.1-7.2-7.1-7.2
				C38.2,20.8,35.1,24,35.1,28z"/>
		</g>
		<g>
			<path class="st1" d="M39.3,54c-1.5-0.3-2.9-0.5-4.3-0.8c-3.3-0.7-6.2-2.2-8.7-4.4c-1-0.9-1.7-2.1-1.3-3.5
				c0.4-1.4,1.2-2.4,2.6-2.8c1-0.2,1.9,0,2.8,0.5c1.2,0.7,2.3,1.5,3.5,2c6.7,2.9,13.1,2.4,19.3-1.6c0.8-0.6,1.7-1,2.8-1
				c1.6,0,2.6,0.9,3.2,2.3c0.6,1.4,0.4,2.6-0.7,3.6c-2.5,2.5-5.6,4.1-9,4.9c-1.3,0.3-2.6,0.5-3.9,0.7c-0.1,0-0.2,0.1-0.5,0.1
				c0.4,0.4,0.6,0.7,1,1c3.2,3.2,6.4,6.4,9.5,9.6c1,1,1.6,2.2,1.1,3.7c-0.5,1.5-1.6,2.5-3.2,2.7c-1.1,0.2-2-0.3-2.8-1
				c-2.4-2.4-4.8-4.8-7.2-7.2c-0.2-0.2-0.5-0.5-0.7-0.7c-0.5-0.4-0.8-0.4-1.3,0c-0.2,0.2-0.5,0.4-0.7,0.7c-2.3,2.3-4.7,4.7-7,7
				c-1,1-2.1,1.6-3.5,1.1c-1.5-0.5-2.5-1.5-2.8-3.1c-0.2-1,0.1-1.9,0.8-2.7c0.2-0.3,0.5-0.5,0.7-0.7c3.1-3.1,6.2-6.2,9.3-9.3
				C38.7,54.7,39,54.4,39.3,54z"/>
		</g>
	</g>
</g>
<g>
	<path class="st1" d="M66,84.4H18.4C8.3,84.4,0,76.1,0,66V18.4C0,8.3,8.3,0,18.4,0H66c10.2,0,18.4,8.3,18.4,18.4V66
		C84.4,76.1,76.1,84.4,66,84.4z M18.4,3.4c-8.3,0-15.1,6.8-15.1,15.1V66c0,8.3,6.8,15.1,15.1,15.1H66C74.3,81,81,74.3,81,66V18.4
		C81,10.1,74.3,3.4,66,3.4H18.4z"/>
</g>
</svg>
