<?xml version="1.0" encoding="utf-8"?>
<!-- Generator: Adobe Illustrator 17.1.0, SVG Export Plug-In . SVG Version: 6.00 Build 0)  -->
<!DOCTYPE svg PUBLIC "-//W3C//DTD SVG 1.1//EN" "http://www.w3.org/Graphics/SVG/1.1/DTD/svg11.dtd">
<svg version="1.1" id="Capa_1" xmlns="http://www.w3.org/2000/svg" xmlns:xlink="http://www.w3.org/1999/xlink" x="0px" y="0px"
	 viewBox="0 0 595.3 841.9" enable-background="new 0 0 595.3 841.9" xml:space="preserve">
<g>
	<circle fill="#FF0000" cx="297.6" cy="259.3" r="66.5"/>
	<path fill="#FF0000" d="M468.8,611.1c0,0-47.5-28.5-171.1-28.5s-171.1,28.5-171.1,28.5c0,42,76,95.1,171.1,95.1
		S468.8,653.1,468.8,611.1z"/>
</g>
<g>
	<rect x="250.1" y="516" fill="#000011" width="19" height="38"/>
	<polygon fill="#000011" points="345.2,516 326.2,516 326.2,459 363.1,459 297.6,378.9 232.1,459 269.1,459 269.1,497 250.1,497 
		250.1,478 192,478 297.6,348.9 403.3,478 345.2,478 	"/>
	<rect x="326.2" y="535" fill="#000011" width="19" height="19"/>
</g>
<g>
	<path fill="#000011" d="M373.7,259.3c0-41.9-34.1-76-76-76s-76,34.1-76,76s34.1,76,76,76S373.7,301.3,373.7,259.3z M297.6,316.4
		c-31.5,0-57-25.6-57-57s25.6-57,57-57s57,25.6,57,57S329.1,316.4,297.6,316.4z"/>
	<path fill="#000011" d="M297.6,573c-124.8,0-174,28.7-176,29.9l-4.6,2.8v5.4c0,57.9,98.8,104.6,180.6,104.6S478.3,669,478.3,611.1
		v-5.4l-4.6-2.8C471.6,601.7,422.4,573,297.6,573z M444.6,611.3c-23,7.9-68.6,18.8-146.9,18.8s-124-10.9-146.9-18.8
		c23.7-8,70.4-19.2,146.9-19.2S420.9,603.3,444.6,611.3z M297.6,696.6c-77.6,0-139-36.8-156.5-68.5c24.2,8.9,72.4,21,156.5,21
		s132.3-12.1,156.5-21C436.6,659.8,375.3,696.6,297.6,696.6z"/>
	<path fill="#000011" d="M590.1,253.2c-4.4-5.2-109.5-126.9-292.4-126.9S9.6,248,5.2,253.2L0,259.3l5.2,6.1c3.4,4,85.3,99,230.2,122
		l5.4,0.9l17.5-21.4l-10.8-5.3c-39.5-19.4-64-58.6-64-102.3c0-62.9,51.2-114.1,114.1-114.1s114.1,51.2,114.1,114.1
		c0,43.8-24.5,83-64,102.4L337,367l17.5,21.4l5.4-0.9c144.9-23,226.8-118,230.2-122l5.2-6.1L590.1,253.2z M164.6,259.3
		c0,41.9,19.3,80.3,51.6,105.1C111.9,341.3,44.7,279.1,25.4,259.3c19.2-19.8,86.2-81.9,190.7-105.1
		C184.8,178.6,164.6,216.6,164.6,259.3z M379.1,364.5c32.3-24.9,51.6-63.2,51.6-105.2c0-42.7-20.2-80.7-51.5-105.1
		c104.3,23.3,171.4,85.3,190.7,105.1C550.6,279.2,483.6,341.3,379.1,364.5z"/>
</g>
</svg>
