<?xml version="1.0" encoding="utf-8"?>
<!-- Generator: Adobe Illustrator 17.1.0, SVG Export Plug-In . SVG Version: 6.00 Build 0)  -->
<!DOCTYPE svg PUBLIC "-//W3C//DTD SVG 1.1//EN" "http://www.w3.org/Graphics/SVG/1.1/DTD/svg11.dtd">
<svg version="1.1" id="Capa_1" xmlns="http://www.w3.org/2000/svg" xmlns:xlink="http://www.w3.org/1999/xlink" x="0px" y="0px"
	 viewBox="0 0 595.3 841.9" enable-background="new 0 0 595.3 841.9" xml:space="preserve">
<g>
	<rect x="19.2" y="584.2" fill="#FF0000" width="441.7" height="57.6"/>
	<path fill="#FF0000" d="M403.3,469h-76.8c-10.6,0-19.2-8.6-19.2-19.2v-57.6c0-10.6,8.6-19.2,19.2-19.2h76.8
		c10.6,0,19.2,8.6,19.2,19.2v57.6C422.5,460.4,413.9,469,403.3,469z"/>
</g>
<g>
	<path d="M499.3,161.7h-63.5c-26.2-24.7-60.2-38.4-96.4-38.4H182.4c-15.9,0-28.8,12.9-28.8,28.8v172.8c0,15.9,12.9,28.8,28.8,28.8
		h3.9l104.7,192h-41.4v-38.4h-96v38.4h-38.4V496c11.1-4,19.2-14.5,19.2-27v-57.6c0-15.9-12.9-28.8-28.8-28.8H67.2
		c-15.9,0-28.8,12.9-28.8,28.8V469c0,12.5,8.1,23.1,19.2,27v49.8H28.8C12.9,545.8,0,558.7,0,574.6v105.6h59.7l9.6,38.4h72.6
		l9.6-38.4h177l9.6,38.4h72.6l9.6-38.4h59.7V646c5.7,3.3,12.2,5.3,19.2,5.3c21.2,0,38.4-17.2,38.4-38.4v-5.6L570,575
		c16.3-16.3,25.3-38,25.3-61.1V257.7C595.3,204.8,552.2,161.7,499.3,161.7z M172.8,324.9V152.1c0-5.3,4.3-9.6,9.6-9.6H288v28.8
		c0,5.3-4.3,9.6-9.6,9.6H240c-15.9,0-28.8,12.9-28.8,28.8v124.8h-28.8C177.1,334.5,172.8,330.2,172.8,324.9z M249.6,353.7v-19.2
		h-19.2V209.7c0-5.3,4.3-9.6,9.6-9.6h38.4c15.9,0,28.8-12.9,28.8-28.8v-28.8h32.1c32.5,0,63,12.6,85.9,35.6
		c23,22.9,35.6,53.5,35.6,85.9v60.9c0,5.3-4.3,9.6-9.6,9.6H268.8v19.2h172.8v134.4H281.5l-73.3-134.4H249.6z M480.1,324.9V264
		c0-8.7-0.9-17.2-2.4-25.5h12c15.9,0,28.8,12.9,28.8,28.8v225.8c0,12.8-5,24.9-14.1,34l-7.9,7.9c-6.8,6.8-16.3,10.8-26,10.8h-9.6
		V352C472,348,480.1,337.4,480.1,324.9z M292,507.4h149.7v38.4H312.9L292,507.4z M172.8,526.6h57.6v19.2h-57.6V526.6z M57.6,411.3
		c0-5.3,4.3-9.6,9.6-9.6h38.4c5.3,0,9.6,4.3,9.6,9.6V469c0,5.3-4.3,9.6-9.6,9.6H67.2c-5.3,0-9.6-4.3-9.6-9.6V411.3z M76.8,497.8H96
		v48H76.8V497.8z M126.9,699.4H84.3l-4.8-19.2h52.2L126.9,699.4z M395.8,699.4h-42.6l-4.8-19.2h52.2L395.8,699.4z M19.2,661v-38.4
		h19.2v-19.2H19.2v-28.8c0-5.3,4.3-9.6,9.6-9.6h432.1v38.4H57.6v19.2h403.3V661H19.2z M576.1,514c0,17.9-7,34.8-19.7,47.5
		l-37.9,37.9V613c0,10.6-8.6,19.2-19.2,19.2s-19.2-8.6-19.2-19.2v-48.9c11.3-2,21.8-7.4,30-15.5l7.9-7.9
		c12.7-12.7,19.7-29.6,19.7-47.5v-62.6h19.2v-19.2h-19.2v-19.2h19.2v-19.2h-19.2v-19.2h19.2v-19.2h-19.2v-19.2h19.2v-19.2h-19.2
		v-28.8c0-26.5-21.5-48-48-48h-17c-4.6-13.7-11.3-26.6-20-38.4h46.5c42.4,0,76.8,34.5,76.8,76.8V514z"/>
	<path d="M441.7,238.5H326.4v76.8h115.2V238.5z M422.5,296.1h-76.8v-38.4h76.8V296.1z"/>
	<rect x="307.2" y="401.7" width="115.2" height="19.2"/>
</g>
</svg>
