<?xml version="1.0" encoding="iso-8859-1"?>
<!-- Generator: Adobe Illustrator 19.0.0, SVG Export Plug-In . SVG Version: 6.00 Build 0)  -->
<svg fill="#666666" version="1.1" id="Capa_1" xmlns="http://www.w3.org/2000/svg" xmlns:xlink="http://www.w3.org/1999/xlink" x="0px" y="0px"
	 viewBox="0 0 384 384" style="enable-background:new 0 0 384 384;" xml:space="preserve">
<g>
	<g>
		<g>
			<path d="M362.667,0h-96C260.776,0,256,4.776,256,10.667V32c0,5.891,4.776,10.667,10.667,10.667h44.5l-94.709,94.709
				c-4.166,4.166-4.166,10.919,0,15.085l15.082,15.082c4.166,4.166,10.919,4.166,15.085,0l94.709-94.709v44.5
				c0,5.891,4.776,10.667,10.667,10.667h21.333c5.891,0,10.667-4.776,10.667-10.667v-96C384,9.551,374.449,0,362.667,0z"/>
			<path d="M353.188,252.052c-23.521,0-46.604-3.677-68.479-10.906c-10.729-3.635-23.896-0.302-30.438,6.417l-43.167,32.594
				c-50.063-26.729-80.917-57.563-107.292-107.26l31.667-42.073c8.229-8.229,11.146-20.219,7.604-31.427
				c-7.25-22.021-10.938-45.104-10.938-68.583C132.146,13.823,118.333,0,101.333,0H30.812C13.812,0,0,13.823,0,30.812
				C0,225.563,158.438,384,353.188,384c17,0,30.813-13.823,30.813-30.813v-70.323C384,265.875,370.188,252.052,353.188,252.052z"/>
		</g>
	</g>
</g>
</svg>
