<?xml version="1.0" encoding="utf-8"?>
<!-- Generator: Adobe Illustrator 17.1.0, SVG Export Plug-In . SVG Version: 6.00 Build 0)  -->
<!DOCTYPE svg PUBLIC "-//W3C//DTD SVG 1.1//EN" "http://www.w3.org/Graphics/SVG/1.1/DTD/svg11.dtd">
<svg version="1.1" id="Layer_1" xmlns="http://www.w3.org/2000/svg" xmlns:xlink="http://www.w3.org/1999/xlink" x="0px" y="0px"
	 viewBox="0 0 595.3 841.9" enable-background="new 0 0 595.3 841.9" xml:space="preserve">
<g>
	<path d="M566.5,329.7H393.7v19.2h96v326.4H96V348.9h105.6v-19.2H28.8C12.9,329.7,0,342.7,0,358.5v307.2c0,15.9,12.9,28.8,28.8,28.8
		h537.7c15.9,0,28.8-12.9,28.8-28.8V358.5C595.3,342.7,582.4,329.7,566.5,329.7z M19.2,665.8V358.5c0-5.3,4.3-9.6,9.6-9.6h48v326.4
		h-48C23.5,675.4,19.2,671.1,19.2,665.8z M576.1,512.2v153.6c0,5.3-4.3,9.6-9.6,9.6h-57.6V512.2V348.9h57.6c5.3,0,9.6,4.3,9.6,9.6
		V512.2z"/>
	<rect x="38.4" y="464.2" width="19.2" height="19.2"/>
	<rect x="38.4" y="502.6" width="19.2" height="57.6"/>
	<path d="M542.5,478.6c-18.5,0-33.6,15.1-33.6,33.6c0,18.5,15.1,33.6,33.6,33.6c18.5,0,33.6-15.1,33.6-33.6
		C576.1,493.6,561,478.6,542.5,478.6z M542.5,526.6c-7.9,0-14.4-6.5-14.4-14.4c0-7.9,6.5-14.4,14.4-14.4c7.9,0,14.4,6.5,14.4,14.4
		C556.9,520.1,550.4,526.6,542.5,526.6z"/>
	<path d="M230.4,387.3v-19.2H115.2v288h355.2v-288H364.8v9.6h-19.2v76.8h-48H134.4v-67.2H230.4z M134.4,521.8h52.6L137.7,637h-3.3
		V521.8z M345.6,637H216.2l49.4-115.2h80.1V637z M451.3,637h-38.4V387.3h38.4V637z M297.6,473.8h67.2v-86.4h28.8V637h-28.8V502.6
		H252.9L195.3,637h-36.7l57.6-134.4h-81.8v-28.8H297.6z"/>
</g>
<path fill="#FF0000" d="M297.6,147.3c-68.9,0-124.8,55.9-124.8,124.8v3.7c0,28.7,9.9,56.5,27.9,78.7l96.9,119.2l96.9-119.2
	c18.1-22.2,27.9-50,27.9-78.7v-3.7C422.5,203.2,366.6,147.3,297.6,147.3z M297.6,339.3c-37.1,0-67.2-30.1-67.2-67.2
	s30.1-67.2,67.2-67.2s67.2,30.1,67.2,67.2S334.8,339.3,297.6,339.3z"/>
<path d="M297.6,348.9c42.4,0,76.8-34.5,76.8-76.8s-34.5-76.8-76.8-76.8s-76.8,34.5-76.8,76.8S255.3,348.9,297.6,348.9z M297.6,214.5
	c31.8,0,57.6,25.8,57.6,57.6s-25.8,57.6-57.6,57.6S240,303.9,240,272.1S265.9,214.5,297.6,214.5z"/>
</svg>
