<?xml version="1.0" encoding="utf-8"?>
<!-- Generator: Adobe Illustrator 17.1.0, SVG Export Plug-In . SVG Version: 6.00 Build 0)  -->
<!DOCTYPE svg PUBLIC "-//W3C//DTD SVG 1.1//EN" "http://www.w3.org/Graphics/SVG/1.1/DTD/svg11.dtd">
<svg version="1.1" id="Capa_1" xmlns="http://www.w3.org/2000/svg" xmlns:xlink="http://www.w3.org/1999/xlink" x="0px" y="0px"
	 viewBox="0 0 595.3 841.9" enable-background="new 0 0 595.3 841.9" xml:space="preserve">
<path fill="#FF0000" d="M556.9,526.6V392.1h-69.1c-2.3-6.6-5.1-13.1-8.2-19.6l48.9-48.9l-72.6-72.6l-23.8,0.9v111.6l-22.2,22.2
	c14,21.2,22.2,46.6,22.2,73.9c0,41.3-18.7,78.2-48,102.9v2.7h-3.4c-22.9,18-51.6,28.8-83,28.8s-60.1-10.8-83-28.8h-3.4v-2.7
	c-29.3-24.7-48-61.6-48-102.9c0-26.4,7.7-51,20.9-71.7l-36.6-32c-8.3-7.3-13.1-17.8-13.1-28.9v-64.2l-6.8,0.2l-60.8,60.8l48.9,48.9
	c-3.1,6.5-5.9,13.1-8.2,19.6H38.4v134.4h69.1c2.3,6.6,5.1,13.1,8.2,19.6l-48.9,49l95,95l49-48.9c6.5,3.1,13.1,5.9,19.6,8.2v69.1
	h134.4v-69.1c6.6-2.3,13.1-5.1,19.6-8.2l49,48.9l95-95l-48.9-49c3.1-6.5,5.9-13.1,8.2-19.6L556.9,526.6L556.9,526.6z"/>
<path d="M576.1,200.1c10.6,0,19.2-8.6,19.2-19.2v-38.4l-4.2-2.9c-15.9-10.7-34.3-16.3-53.4-16.3c-34.6,0-65.9,18.2-83.1,48h-13
	c0-21.2-17.2-38.4-38.4-38.4c-11.5,0-21.8,5.2-28.8,13.3c-7-8.1-17.3-13.3-28.8-13.3c-11.5,0-21.8,5.2-28.8,13.3
	c-7-8.1-17.3-13.3-28.8-13.3c-11.5,0-21.8,5.2-28.8,13.3c-7-8.1-17.3-13.3-28.8-13.3c-21.2,0-38.4,17.2-38.4,38.4h-51.4
	c-17.2-29.8-48.5-48-83.1-48c-19,0-37.5,5.6-53.4,16.3L0,142.5v38.4c0,10.6,8.6,19.2,19.2,19.2h48v38.4h-48
	C8.6,238.5,0,247.1,0,257.7v38.4l4.2,2.9c15.9,10.7,34.3,16.3,53.4,16.3c25.8,0,49.6-10.3,67.2-27.7v39.1c0,13.8,6,27,16.4,36.1
	l30.5,26.7c-11.8,21.3-18.1,45.3-18.1,69.8c0,79.4,64.6,144,144,144s144-64.6,144-144c0-25.7-6.7-50.5-19.6-72.5l19.6-19.6v-80.8
	v-19.2h13c17.2,29.8,48.5,48,83.1,48c19,0,37.5-5.6,53.4-16.3l4.2-2.9v-38.4c0-10.6-8.6-19.2-19.2-19.2h-48v-38.4H576.1z
	 M403.3,152.1c10.6,0,19.2,8.6,19.2,19.2v9.6v105.6c0,10.6-8.6,19.2-19.2,19.2s-19.2-8.6-19.2-19.2V171.3
	C384.1,160.7,392.7,152.1,403.3,152.1z M345.6,152.1c10.6,0,19.2,8.6,19.2,19.2v115.2c0,10.6-8.6,19.2-19.2,19.2
	c-10.6,0-19.2-8.6-19.2-19.2V171.3C326.4,160.7,335.1,152.1,345.6,152.1z M288,152.1c10.6,0,19.2,8.6,19.2,19.2v115.2
	c0,10.6-8.6,19.2-19.2,19.2c-10.6,0-19.2-8.6-19.2-19.2V171.3C268.8,160.7,277.4,152.1,288,152.1z M211.2,171.3
	c0-10.6,8.6-19.2,19.2-19.2c10.6,0,19.2,8.6,19.2,19.2v115.2c0,8.4-5.4,15.6-13.1,18.2l-25.3-22.5v-38.9V171.3z M57.6,296.1
	c-13.6,0-26.7-3.6-38.4-10.4v-28h67.2v-76.8H19.2v-28c11.7-6.8,24.8-10.4,38.4-10.4c29.3,0,55.6,16.4,68.7,42.7l2.6,5.3h63v16.9
	c-6.9-4.6-15.1-7.3-24-7.3c-23.8,0-43.2,19.4-43.2,43.2V256C111.3,280.8,85.9,296.1,57.6,296.1z M172.8,459.4
	c0-19.9,4.7-39.4,13.7-56.9l15.1,13.2V539C183.7,517.4,172.8,489.6,172.8,459.4z M422.5,459.4c0,30.3-10.8,58-28.8,79.6V415.3
	l14.3-14.3C417.4,418.9,422.5,438.8,422.5,459.4z M374.5,407.4v90.4h-19.2V517h19.2v40.6c-21.2,16.6-47.8,26.6-76.8,26.6
	s-55.6-10-76.8-26.6V517H336v-19.2H220.8V407l-67-58.6c-6.3-5.5-9.8-13.4-9.8-21.7v-83.4c0-13.2,10.8-24,24-24c13.2,0,24,10.8,24,24
	v43.2v4.3l89.6,79.7l12.8-14.3l-42.6-37.9c2.8-1.9,5.4-4,7.5-6.5c7,8,17.2,13.2,28.7,13.2c11.5,0,21.8-5.2,28.8-13.3
	c7,8.1,17.3,13.3,28.8,13.3c11.5,0,21.8-5.2,28.8-13.3c7,8.1,17.3,13.3,28.8,13.3c7,0,13.5-2,19.2-5.3v39.8L374.5,407.4z
	 M576.1,257.7v28c-11.7,6.8-24.8,10.4-38.4,10.4c-29.3,0-55.6-16.4-68.7-42.7l-2.6-5.3h-24.6v-57.6h24.6l2.6-5.3
	c13.1-26.3,39.4-42.7,68.7-42.7c13.6,0,26.7,3.6,38.4,10.4v28h-67.2v76.8H576.1z"/>
</svg>
