<?xml version="1.0" encoding="iso-8859-1"?>
<!-- Generator: Adobe Illustrator 19.0.0, SVG Export Plug-In . SVG Version: 6.00 Build 0)  -->
<svg fill="#ffffff" version="1.1" id="Capa_1" xmlns="http://www.w3.org/2000/svg" xmlns:xlink="http://www.w3.org/1999/xlink" x="0px" y="0px"
	 viewBox="0 0 512 512" style="enable-background:new 0 0 512 512;" xml:space="preserve">
<g>
	<g>
		<g>
			<path d="M216,400c-30.928,0-56,25.072-56,56c0,30.928,25.072,56,56,56c30.928,0,56-25.072,56-56C272,425.072,246.928,400,216,400
				z M216,480c-13.255,0-24-10.745-24-24s10.745-24,24-24s24,10.745,24,24S229.255,480,216,480z"/>
			<path d="M408,400c-30.928,0-56,25.072-56,56c0,30.928,25.072,56,56,56c30.928,0,56-25.072,56-56C464,425.072,438.928,400,408,400
				z M408,480c-13.255,0-24-10.745-24-24s10.745-24,24-24s24,10.745,24,24S421.255,480,408,480z"/>
			<polygon points="384,336 156.336,336 76.336,32 0,32 0,64 51.664,64 131.664,368 384,368 			"/>
			<rect x="416" y="336" width="32" height="32"/>
			<rect x="480" y="336" width="32" height="32"/>
			<polygon points="480,272 205.632,272 167.792,128 256,128 256,96 126.304,96 180.944,304 512,304 512,240 480,240 			"/>
			<rect x="240" y="160" width="32" height="80"/>
			<polygon points="384,160 416,160 416,128 448,128 448,96 416,96 416,64 384,64 384,96 352,96 352,128 384,128 			"/>
			<path d="M400,224c61.856,0,112-50.144,112-112S461.856,0,400,0S288,50.144,288,112C288.071,173.827,338.173,223.929,400,224z
				 M400,32c44.183,0,80,35.817,80,80s-35.817,80-80,80c-44.183,0-80-35.817-80-80C320.053,67.839,355.839,32.053,400,32z"/>
		</g>
	</g>
</g>
</svg>
