<svg fill="#e30613" id="Capa_1" enable-background="new 0 0 511 511" height="512" viewBox="0 0 511 511" width="512" xmlns="http://www.w3.org/2000/svg"><g><path d="m511 243.474-134.389-135.998c-10.104-11.227-24.522-17.655-39.632-17.655-29.395 0-53.31 23.915-53.31 53.31h30c0-12.853 10.457-23.31 23.31-23.31 6.672 0 13.037 2.868 17.464 7.87l.273.309 117.991 119.405h-198.492v34.662c-5.765-2.408-12.086-3.744-18.715-3.744s-12.949 1.336-18.715 3.744v-34.662h-198.493l117.702-119.112.563-.602c4.427-5.002 10.792-7.87 17.464-7.87 12.853 0 23.31 10.457 23.31 23.31h30c0-29.395-23.915-53.31-53.31-53.31-15.109 0-29.527 6.429-39.632 17.655l-134.389 135.998v33.931h28.846v98.775c0 24.813 20.187 45 45 45h87.939c41.355 0 75-33.645 75-75v-19.142c0-10.32 8.396-18.716 18.715-18.716s18.715 8.396 18.715 18.716v19.142c0 41.355 33.645 75 75 75h87.939c24.813 0 45-20.187 45-45v-98.775h28.846zm-346.263 80.109-42.631 42.631-21.213-21.213 42.631-42.631zm202.739 42.631-21.213-21.213 42.631-42.631 21.213 21.213z"/></g></svg>