<?xml version="1.0" encoding="utf-8"?>
<!-- Generator: Adobe Illustrator 17.1.0, SVG Export Plug-In . SVG Version: 6.00 Build 0)  -->
<!DOCTYPE svg PUBLIC "-//W3C//DTD SVG 1.1//EN" "http://www.w3.org/Graphics/SVG/1.1/DTD/svg11.dtd">
<svg version="1.1" id="Capa_1" xmlns="http://www.w3.org/2000/svg" xmlns:xlink="http://www.w3.org/1999/xlink" x="0px" y="0px"
	 viewBox="0 0 595.3 841.9" enable-background="new 0 0 595.3 841.9" xml:space="preserve">
<g>
	<path fill="#FF0000" d="M460.2,305.7c-1.9,0-3.7-0.5-5.4-1.6c-3.1-2.1-4.7-5.9-4.1-9.6l6.3-36.8h-25.6c-15.9,0-28.8-12.9-28.8-28.8
		v-76.8c0-15.9,12.9-28.8,28.8-28.8h134.4c15.9,0,28.8,12.9,28.8,28.8v76.8c0,15.9-12.9,28.8-28.8,28.8h-26l-74.5,46.5
		C463.7,305.2,461.9,305.7,460.2,305.7z"/>
	
		<rect x="62.1" y="445.3" transform="matrix(0.7071 -0.7071 0.7071 0.7071 -320.3455 198.6601)" fill="#FF0000" width="35.1" height="81.5"/>
	<polygon fill="#FF0000" points="250.1,681.4 277.8,656 220.1,598.4 192.3,623.6 	"/>
</g>
<path d="M460.9,575.1c-7.8-23.3-27.6-40.5-51.7-44.9L345,518.5v-5c11.2-6.5,20.9-15.2,28.6-25.4H393c15.9,0,28.8-12.9,28.8-28.8
	V344.1c0-68.8-56-124.8-124.8-124.8s-124.8,56-124.8,124.8v67.2c0,18.5,13.2,34,30.6,37.6c5.4,27.6,22.6,50.9,46.2,64.6v5
	l-64.2,11.7c-24.1,4.4-44,21.6-51.7,44.9l-3.8,11.5l-32.7-32.7c-3.7-3.7-3.7-9.8,0-13.6l37.9-37.9l-71.2-71.2l-42.9,42.9
	C7.7,486.8,0.7,503.7,0.7,521.6c0,18,7,34.8,19.7,47.5l129.8,129.8c12.7,12.7,29.6,19.7,47.5,19.7s34.8-7,47.2-19.4l46.8-42.9
	l-14.6-14.6h206L460.9,575.1z M297,551.4l-28.8-28.8v-0.5c9.1,2.9,18.8,4.4,28.8,4.4c10,0,19.7-1.6,28.8-4.4v0.5L297,551.4z
	 M393,469h-8.1c2.8-6.3,4.9-13,6.3-20c4.1-0.9,7.9-2.5,11.4-4.5v14.9C402.6,464.7,398.3,469,393,469z M393,394.8
	c5.7,3.3,9.6,9.5,9.6,16.5s-3.9,13.2-9.6,16.5V394.8z M191.3,411.3c0-7.1,3.9-13.2,9.6-16.5v33.1
	C195.2,424.5,191.3,418.4,191.3,411.3z M200.9,363.3v11c-3.4,0.9-6.6,2.2-9.6,4v-34.1c0-58.2,47.4-105.6,105.6-105.6
	s105.6,47.4,105.6,105.6v34.1c-3-1.7-6.2-3.1-9.6-4v-11h-9.6c-28.4,0-55.1-11.1-75.2-31.1L297,321l-11.2,11.2
	c-20.1,20.1-46.8,31.1-75.2,31.1H200.9z M220.1,430.5v-48.4c28.8-2.2,55.7-14.1,76.8-34.1c21.1,20.1,48,32,76.8,34.1v48.4
	c0,14-3.8,27.1-10.4,38.4H297v19.2h50.6c-13.5,11.9-31.2,19.2-50.6,19.2C254.6,507.4,220.1,472.9,220.1,430.5z M107.3,502.4
	l-10.4,10.4l-44-44l10.4-10.4L107.3,502.4z M197.6,699.4c-12.8,0-24.9-5-34-14.1L33.9,555.6c-9.1-9.1-14.1-21.1-14.1-33.9
	c0-12.8,5-24.9,14.1-34l5.3-5.3l44,44l-0.3,0.3c-11.2,11.2-11.2,29.5,0,40.7l68.9,68.9c5.4,5.4,12.7,8.4,20.4,8.4s14.9-3,20-8.1
	l0.7-0.6l44.2,44.2l-5.5,5.1C222.5,694.4,210.5,699.4,197.6,699.4z M251.3,667.3l-44.1-44.1l12.7-11.5l44.1,44.1L251.3,667.3z
	 M257.9,622.6l-37.4-37.4l-41.6,37.6c-3.6,3.6-9.9,3.6-13.6,0l-21-21l6.9-20.6c5.5-16.6,19.7-28.9,37-32.1l67.1-12.2l41.6,41.6
	l41.6-41.6l67.1,12.2c17.3,3.1,31.4,15.4,37,32.1l13.8,41.4H257.9z"/>
<rect x="441" y="161.7" fill="#FFFFFF" width="115.2" height="19.2"/>
<rect x="441" y="200.1" fill="#FFFFFF" width="76.8" height="19.2"/>
<rect x="537" y="200.1" fill="#FFFFFF" width="19.2" height="19.2"/>
<path d="M90.7,362l-9.9-16.5l-26,15.6C82,250.4,181.6,171.3,297,171.3c25.2,0,50.1,3.7,74,11.1l5.7-18.3c-25.7-8-52.5-12-79.7-12
	c-125.5,0-233.5,86.8-261.6,207.8l-18.2-30.3l-16.5,9.9l33.7,56.2L90.7,362z"/>
<path d="M589.9,335.9l-56.2-33.7L500,358.4l16.5,9.9l16.8-28c8.8,25.9,13.4,52.9,13.4,80.7c0,57.1-19.8,112.9-55.7,157.2l14.9,12.1
	c38.7-47.7,60-107.8,60-169.3c0-29.4-4.7-58-14-85.5l28.2,16.9L589.9,335.9z"/>
</svg>
