<?xml version="1.0" encoding="utf-8"?>
<!-- Generator: Adobe Illustrator 17.1.0, SVG Export Plug-In . SVG Version: 6.00 Build 0)  -->
<!DOCTYPE svg PUBLIC "-//W3C//DTD SVG 1.1//EN" "http://www.w3.org/Graphics/SVG/1.1/DTD/svg11.dtd">
<svg fill="#005e90" version="1.1" id="Capa_1" xmlns="http://www.w3.org/2000/svg" xmlns:xlink="http://www.w3.org/1999/xlink" x="0px" y="0px"
	 viewBox="0 0 595.3 841.9" enable-background="new 0 0 595.3 841.9" xml:space="preserve">
<g>
	<g>
		<g>
			<path d="M569.5,300L569.5,300l-34,15.1c44.4,99.8,21.8,216.6-56.7,292.6l-88.4-32.2V539l55.8-74.4V346.7
				c0-82.2-66.7-148.9-148.9-148.9s-148.9,66.7-148.9,148.9v117.9l55.8,74.4v36.6L116,607.7C12.9,507.5,10.6,342.6,110.8,239.5
				c80.5-82.9,206.1-102.8,308.3-48.8l17.4-32.9c-145.4-76.7-325.4-21-402,124.4s-21,325.4,124.4,402s325.4,21,402-124.4
				C603.4,479.1,606.6,383.3,569.5,300z M297.5,681.7c-53,0-104.6-16.2-148.1-46.5l92.3-33.5v-75.1l-55.8-74.4V346.7
				c0-61.7,50-111.7,111.7-111.7s111.7,50,111.7,111.7v105.5l-55.8,74.4v75.1l92.3,33.5C402.1,665.4,350.4,681.7,297.5,681.7z"/>
			<path d="M519.4,284.5l31.6-19.6c-7-11.2-14.6-22-23-32.3l-28.8,23.6C506.5,265.2,513.3,274.6,519.4,284.5z"/>
			<path d="M500.9,203.7c-9.7-9-19.9-17.4-30.7-25.1L448.6,209c9.4,6.7,18.4,14.1,26.9,22L500.9,203.7z"/>
		</g>
	</g>
</g>
</svg>
