<?xml version="1.0" encoding="iso-8859-1"?>
<!-- Generator: Adobe Illustrator 19.0.0, SVG Export Plug-In . SVG Version: 6.00 Build 0)  -->
<svg fill="#e30613" version="1.1" id="Capa_1" xmlns="http://www.w3.org/2000/svg" xmlns:xlink="http://www.w3.org/1999/xlink" x="0px" y="0px"
	 viewBox="0 0 512 512" style="enable-background:new 0 0 512 512;" xml:space="preserve">
<g>
	<g>
		<path d="M115.642,42.296c-11.75,7.716-22.951,16.472-33.292,26.024l20.354,22.038c9.136-8.437,19.03-16.171,29.407-22.986
			L115.642,42.296z"/>
	</g>
</g>
<g>
	<g>
		<path d="M53.761,99.446c-8.647,11.125-16.421,23.038-23.107,35.405l26.392,14.266c5.902-10.919,12.766-21.436,20.402-31.261
			L53.761,99.446z"/>
	</g>
</g>
<g>
	<g>
		<path d="M498.006,172.739l-28.354,9.802c4.054,11.726,7.155,23.887,9.213,36.142l29.586-4.971
			C506.116,199.819,502.602,186.034,498.006,172.739z"/>
	</g>
</g>
<g>
	<g>
		<path d="M13.696,173.605c-4.548,13.311-8.013,27.108-10.297,41.011l29.603,4.865c2.016-12.265,5.072-24.437,9.083-36.176
			L13.696,173.605z"/>
	</g>
</g>
<g>
	<g>
		<path d="M77.748,395.371L54.1,413.832c8.654,11.085,18.294,21.536,28.652,31.062l20.308-22.082
			C93.909,414.396,85.393,405.164,77.748,395.371z"/>
	</g>
</g>
<g>
	<g>
		<path d="M30,256.69l-30,0.036c0.017,14.12,1.194,28.287,3.5,42.106l29.591-4.936C31.055,281.691,30.015,269.173,30,256.69z"/>
	</g>
</g>
<g>
	<g>
		<path d="M457.712,98.773l-23.625,18.488c7.663,9.792,14.56,20.283,20.5,31.179l26.34-14.358
			C474.2,121.741,466.39,109.861,457.712,98.773z"/>
	</g>
</g>
<g>
	<g>
		<path d="M192.737,8.302c-13.64,3.468-27.089,8.108-39.975,13.793l12.108,27.448c11.367-5.015,23.23-9.108,35.259-12.166
			L192.737,8.302z"/>
	</g>
</g>
<g>
	<g>
		<path d="M395.637,41.825l-16.385,25.131c10.402,6.782,20.324,14.485,29.491,22.895l20.282-22.106
			C418.649,58.224,407.415,49.503,395.637,41.825z"/>
	</g>
</g>
<g>
	<g>
		<path d="M234.429,1.319l2.497,29.896c12.324-1.03,24.999-1.053,37.345-0.066l2.391-29.904
			C262.697,0.128,248.372,0.154,234.429,1.319z"/>
	</g>
</g>
<g>
	<g>
		<path d="M318.376,8.078l-7.287,29.102c12.048,3.017,23.932,7.07,35.321,12.047l12.012-27.49
			C345.51,16.095,332.037,11.499,318.376,8.078z"/>
	</g>
</g>
<g>
	<g>
		<path d="M42.26,330.049l-28.364,9.77c4.578,13.292,10.308,26.304,17.031,38.675l26.359-14.324
			C51.354,353.254,46.299,341.774,42.26,330.049z"/>
	</g>
</g>
<g>
	<g>
		<path d="M434.387,395.2c-7.639,9.802-16.147,19.044-25.288,27.466l20.328,22.063c10.348-9.534,19.978-19.994,28.624-31.091
			L434.387,395.2z"/>
	</g>
</g>
<g>
	<g>
		<path d="M511.999,255.85h-30l0.001,0.571c0,12.482-1.025,25-3.047,37.205l29.598,4.901C510.84,284.706,512,270.54,512,256.343
			L511.999,255.85z"/>
	</g>
</g>
<g>
	<g>
		<path d="M379.665,445.619c-10.399,6.812-21.429,12.797-32.781,17.79l12.076,27.462c12.865-5.658,25.362-12.439,37.144-20.157
			L379.665,445.619z"/>
	</g>
</g>
<g>
	<g>
		<path d="M469.828,329.793c-4.028,11.742-9.075,23.238-15.002,34.169l26.373,14.299c6.718-12.39,12.439-25.421,17.006-38.734
			L469.828,329.793z"/>
	</g>
</g>
<g>
	<g>
		<path d="M132.522,445.74l-16.414,25.112c11.798,7.712,24.311,14.485,37.191,20.132l12.046-27.476
			C153.979,458.525,142.936,452.547,132.522,445.74z"/>
	</g>
</g>
<g>
	<g>
		<path d="M311.613,475.532c-12.012,3.039-24.394,5.098-36.802,6.119l2.461,29.899c14.056-1.157,28.085-3.49,41.698-6.934
			L311.613,475.532z"/>
	</g>
</g>
<g>
	<g>
		<path d="M200.653,475.599l-7.323,29.092c13.618,3.427,27.65,5.744,41.707,6.884l2.426-29.901
			C225.053,480.667,212.669,478.623,200.653,475.599z"/>
	</g>
</g>
<g>
	<g>
		<path d="M256,226.429c-16.538,0-29.993,13.455-29.993,29.993c0,16.538,13.455,29.993,29.993,29.993
			c16.538,0,29.992-13.455,29.992-29.993S272.538,226.429,256,226.429z"/>
	</g>
</g>
<g>
	<g>
		<path d="M123.048,256.422c0-18.291,3.714-35.731,10.426-51.606c-24.305,19.767-42.658,40.276-52.081,51.609
			c8.869,10.674,25.639,29.482,47.771,48.062c1.399,1.174,2.845,2.361,4.314,3.553C126.763,292.162,123.048,274.718,123.048,256.422
			z"/>
	</g>
</g>
<g>
	<g>
		<path d="M256,153.47c-56.768,0-102.952,46.184-102.952,102.952S199.232,359.374,256,359.374s102.952-46.184,102.952-102.952
			S312.768,153.47,256,153.47z M256,316.414c-33.08,0-59.993-26.913-59.993-59.993S222.92,196.429,256,196.429
			s59.992,26.913,59.992,59.993S289.08,316.414,256,316.414z"/>
	</g>
</g>
<g>
	<g>
		<path d="M382.836,208.357c-1.399-1.174-2.845-2.362-4.314-3.554c6.715,15.878,10.43,33.322,10.43,51.618
			c0,18.291-3.714,35.731-10.426,51.607c24.305-19.767,42.658-40.276,52.082-51.609
			C421.736,245.742,404.967,226.935,382.836,208.357z"/>
	</g>
</g>
<g>
</g>
<g>
</g>
<g>
</g>
<g>
</g>
<g>
</g>
<g>
</g>
<g>
</g>
<g>
</g>
<g>
</g>
<g>
</g>
<g>
</g>
<g>
</g>
<g>
</g>
<g>
</g>
<g>
</g>
</svg>
