<svg fill="#e30613" height="512pt" viewBox="0 0 512 511" width="512pt" xmlns="http://www.w3.org/2000/svg"><path d="m256 181.367188c-41.351562 0-75 33.648437-75 75 0 41.355468 33.648438 75 75 75s75-33.644532 75-75c0-41.351563-33.648438-75-75-75zm0 120c-24.8125 0-45-20.183594-45-45 0-24.8125 20.1875-45 45-45s45 20.1875 45 45c0 24.816406-20.1875 45-45 45zm0 0"/><path d="m256 241.367188c-8.277344 0-15 6.726562-15 15 0 8.277343 6.722656 15 15 15s15-6.722657 15-15c0-8.273438-6.722656-15-15-15zm0 0"/><path d="m256 90.367188c-101.875 0-195.65625 82.886718-256 166 60.324219 83.089843 154.105469 166 256 166 101.875 0 195.65625-82.882813 256-166-60.324219-83.089844-154.105469-166-256-166zm0 271c-57.890625 0-105-47.109376-105-105 0-57.890626 47.109375-105 105-105s105 47.109374 105 105c0 57.890624-47.109375 105-105 105zm0 0"/><path d="m233.589844 1.347656c-20.363282 1.773438-40.460938 5.992188-59.722656 12.554688l9.667968 28.390625c16.976563-5.773438 34.699219-9.492188 52.660156-11.0625zm0 0"/><path d="m145.566406 25.460938c-18.339844 8.816406-35.640625 19.863281-51.402344 32.828124l19.042969 23.171876c13.914063-11.4375 29.179688-21.179688 45.367188-28.957032zm0 0"/><path d="m355.316406 20.449219-1.976562-.832031-9.773438 28.433593c15.996094 6.765625 31.214844 15.410157 45.234375 25.675781l17.726563-24.199218c-15.878906-11.644532-33.132813-21.429688-51.210938-29.078125zm0 0"/><path d="m469.355469 115.652344c-9.582031-14.605469-20.699219-28.257813-33.046875-40.59375l-6.257813-6.046875-20.476562 21.914062 5.519531 5.359375c10.898438 10.882813 20.714844 22.9375 29.179688 35.828125zm0 0"/><path d="m93.417969 99.847656-21.652344-20.773437c-14.132813 14.738281-26.453125 31.15625-36.648437 48.792969l25.984374 16c8.980469-15.554688 19.847657-31.027344 32.316407-44.019532zm0 0"/><path d="m264.113281.5-.9375 29.984375c18.09375.558594 35.992188 3.28125 53.21875 8.070313l8.058594-28.886719c-19.558594-5.445313-39.84375-8.539063-60.339844-9.167969zm0 0"/><path d="m195.605469 474.179688-8.058594 28.886718c19.554687 5.449219 39.84375 8.539063 60.335937 9.171875l.9375-29.984375c-18.089843-.558594-35.988281-3.285156-53.214843-8.074218zm0 0"/><path d="m328.464844 470.445312c-16.976563 5.769532-34.699219 9.492188-52.660156 11.058594l2.605468 29.882813c20.363282-1.773438 40.460938-5.992188 59.722656-12.554688zm0 0"/><path d="m398.792969 431.273438c-13.914063 11.441406-29.179688 21.183593-45.367188 28.960937l13.007813 27.039063c18.339844-8.816407 35.640625-19.863282 51.402344-32.824219zm0 0"/><path d="m105.472656 463.207031c15.878906 11.648438 33.136719 21.433594 51.210938 29.078125l1.976562.835938 9.773438-28.433594c-15.996094-6.769531-31.214844-15.410156-45.234375-25.679688zm0 0"/><path d="m450.898438 369.867188c-8.980469 15.558593-19.851563 30.03125-32.316407 43.023437l21.652344 20.769531c14.132813-14.734375 26.453125-31.15625 36.648437-48.792968zm0 0"/><path d="m102.425781 421.8125-5.523437-5.363281c-10.894532-10.882813-20.710938-22.9375-29.179688-35.828125l-25.078125 16.464844c9.582031 14.601562 20.699219 28.257812 33.046875 40.589843l6.257813 6.050781zm0 0"/></svg>