<?xml version="1.0" encoding="utf-8"?>
<!-- Generator: Adobe Illustrator 19.0.1, SVG Export Plug-In . SVG Version: 6.00 Build 0)  -->
<svg version="1.1" id="Layer_1" xmlns="http://www.w3.org/2000/svg" xmlns:xlink="http://www.w3.org/1999/xlink" x="0px" y="0px"
	 viewBox="0 0 84.4 84.4" style="enable-background:new 0 0 84.4 84.4;" xml:space="preserve">
<style type="text/css">
	.st0{display:none;fill:#231F20;}
	.st1{fill:#FFFFFF;}
</style>
<rect x="-376.1" y="-240" class="st0" width="841.9" height="595.3"/>
<g>
	<g>
		<path class="st1" d="M47.1,33.8c0,1.4,0,2.7,0,4c0,0.7,0,1.4,0.2,2.1c0.1,0.4,0.3,0.8,0.7,1.1c0.2,0.1,0.4,0.2,0.6,0.1
			c0.4-0.1,0.7-0.3,1-0.6c0.7-0.6,1.3-1.3,1.8-2.1c2-2.6,3.5-5.5,4.7-8.6c0.2-0.5,0.4-1,0.7-1.5c0.1-0.4,0.4-0.8,0.8-0.9
			c0.2-0.1,0.5-0.1,0.7-0.1c0.1,0,0.3,0,0.4,0c2.6,0,5.3,0,7.9,0c0.6,0,1.1,0,1.6,0c0.3,0,0.6,0.1,0.8,0.2c0.4,0.2,0.6,0.5,0.6,0.9
			c0,0.6-0.1,1.1-0.3,1.6c-0.5,1.3-1.2,2.5-2,3.7c-1.5,2.3-3.2,4.4-4.8,6.6c-0.5,0.7-1,1.5-1.5,2.2c-0.3,0.4-0.4,0.9-0.4,1.4
			c0,0.5,0.3,0.9,0.7,1.3c0.6,0.6,1.2,1.2,1.8,1.8c1.6,1.6,3.2,3.1,4.7,4.8c0.7,0.8,1.3,1.6,1.7,2.6c0.1,0.2,0.2,0.5,0.2,0.8
			c0.1,0.7-0.1,1.2-0.7,1.6c-0.5,0.4-1.2,0.6-1.8,0.7c-1.9,0-3.1,0.1-7,0.1c-1.9,0-2.9-0.5-4.1-1.4c-0.9-0.7-1.6-1.6-2.4-2.4
			c-0.8-0.8-1.6-1.7-2.4-2.6c-0.3-0.4-0.8-0.7-1.2-0.9c-0.7-0.4-1.3-0.2-1.8,0.3c-0.5,0.5-0.7,1-0.9,1.7c-0.3,0.9-0.4,1.9-0.4,2.8
			c0,0.2,0,0.5-0.1,0.7c-0.2,1.1-1.1,1.6-2.4,1.6c-1.5,0-2.1,0-3.3,0c-1.7,0-3.5-0.4-5.2-1c-3.2-1.2-5.8-3.1-8.1-5.6
			c-2.3-2.4-4.2-5.1-5.9-8c-2.7-4.4-5-8.9-7.1-13.6c-0.1-0.3-0.2-0.7-0.2-1c0-0.3,0.1-0.5,0.4-0.6c0.4-0.2,0.8-0.3,1.3-0.3
			c2.6,0,5.2,0,7.9,0c0.9,0,1.7,0.6,2.1,1.6c0.8,1.8,1.6,3.5,2.5,5.2c1,1.9,2.2,3.7,3.5,5.5c0.5,0.6,1,1.2,1.6,1.6
			c0.5,0.3,0.9,0.4,1.4,0.1c0.3-0.1,0.4-0.4,0.6-0.7c0.3-0.7,0.4-1.4,0.5-2.1c0.2-1.7,0.2-3.4,0.1-5.1c0-1-0.1-2-0.3-3
			c0-0.2-0.1-0.5-0.2-0.7c-0.1-0.5-0.4-0.8-0.8-1.1c-0.6-0.3-1.2-0.6-1.8-0.6c-0.2,0-0.2-0.1-0.2-0.3c0.1-0.1,0.2-0.3,0.3-0.4
			c0.6-0.7,1.4-1,2.2-1.2c1.2-0.1,2.5-0.2,3.8-0.2c1.4,0,2.8,0,4.2,0.1c0.6,0,1.2,0.1,1.8,0.3c1,0.2,1.6,0.9,1.7,2
			c0.1,0.8,0.1,1.6,0.1,2.3C47.2,31.8,47.1,32.8,47.1,33.8z"/>
	</g>
</g>
<g>
	<path class="st1" d="M66,84H18.4C8.3,84,0,75.8,0,65.6V18.1C0,7.9,8.3-0.3,18.4-0.3H66c10.2,0,18.4,8.3,18.4,18.4v47.5
		C84.4,75.8,76.1,84,66,84z M18.4,3C10.1,3,3.4,9.8,3.4,18.1v47.5c0,8.3,6.8,15.1,15.1,15.1H66c8.3,0,15.1-6.8,15.1-15.1V18.1
		C81,9.8,74.3,3,66,3H18.4z"/>
</g>
</svg>
