<?xml version="1.0" encoding="utf-8"?>
<!-- Generator: Adobe Illustrator 17.1.0, SVG Export Plug-In . SVG Version: 6.00 Build 0)  -->
<!DOCTYPE svg PUBLIC "-//W3C//DTD SVG 1.1//EN" "http://www.w3.org/Graphics/SVG/1.1/DTD/svg11.dtd">
<svg version="1.1" id="Layer_5" xmlns="http://www.w3.org/2000/svg" xmlns:xlink="http://www.w3.org/1999/xlink" x="0px" y="0px"
	 viewBox="0 0 512 512" enable-background="new 0 0 512 512" xml:space="preserve">
<g>
	<g>
		<path fill="#FF0000" d="M352,320c0-34.2-18-64.2-45-81.2c-17.2,19.8-27,49.3-27,81.2s9.9,61.4,27,81.2
			C334,384.2,352,354.2,352,320z"/>
	</g>
	<g>
		<path fill="#FF0000" d="M160,320c0,34.2,18,64.2,45,81.2c17.2-19.8,27-49.3,27-81.2s-9.9-61.4-27-81.2
			C178,255.8,160,285.8,160,320z"/>
	</g>
	<g>
		<path d="M256,216c-57.3,0-104,46.7-104,104s46.7,104,104,104s104-46.7,104-104S313.3,216,256,216z M256,408c-48.5,0-88-39.5-88-88
			s39.5-88,88-88s88,39.5,88,88S304.5,408,256,408z"/>
		<path d="M440,315.2c0-11.5-4.5-21.9-11.8-29.6c3.9-10.2,3.9-21.5-0.4-31.6l-3.6-8.8c-4.2-10.3-12.2-18.3-22.2-22.8
			c-0.3-11-4.6-21.3-12.5-29.1l-6.7-6.7c-7.9-7.9-18.2-12.2-29.3-12.5c-2.4-5.4-5.8-10.2-10.1-14.1L412.4,8H298.8L256,102.3L213.2,8
			H99.6l69,151.9c-4.4,4-7.9,8.9-10.3,14.2c-10.9,0.4-21.3,4.6-29.1,12.4l-6.7,6.7c-7.9,7.9-12.2,18.2-12.5,29.3
			C100,227,92,235,87.8,245.2l-3.6,8.8c-4.3,10.3-4.3,21.5-0.4,31.8c-7.5,8-11.8,18.4-11.8,29.4v9.5c0,11.5,4.5,21.9,11.8,29.6
			c-3.9,10.2-3.9,21.5,0.4,31.6l3.6,8.8c4.2,10.3,12.2,18.3,22.2,22.8c0.3,11,4.6,21.3,12.4,29.1l6.7,6.7
			c7.9,7.9,18.2,12.2,29.3,12.5c4.5,10,12.5,17.9,22.6,22.2l8.8,3.6c5.3,2.2,10.9,3.3,16.6,3.3c5.2,0,10.3-1.1,15.3-2.9
			c8,7.5,18.4,11.8,29.4,11.8h9.5c11.5,0,21.9-4.5,29.6-11.8c5,1.9,10.1,2.9,15.3,2.9c5.5,0,11.1-1.1,16.3-3.3l8.8-3.6
			c10.3-4.3,18.3-12.2,22.8-22.3c11-0.3,21.3-4.6,29.1-12.4l6.7-6.7c7.9-7.9,12.2-18.2,12.5-29.3c10-4.5,17.9-12.5,22.2-22.6
			l3.6-8.8c4.3-10.3,4.3-21.5,0.4-31.8c7.5-8,11.8-18.4,11.8-29.4L440,315.2z M404.4,329.5c-4.1-1.7-8.4-2.6-12.7-3
			c0.1-2.2,0.3-4.3,0.3-6.5c0-10.5-1.3-20.8-3.6-30.6c2.7-0.9,5.5-1.4,8.4-1.4c15,0,27.2,12.2,27.2,27.2v9.5c0,5.4-1.8,10.6-4.8,15
			C415.1,335.4,410.1,331.9,404.4,329.5L404.4,329.5z M256,440c-66.2,0-120-53.8-120-120s53.8-120,120-120s120,53.8,120,120
			S322.2,440,256,440z M88,324.8v-9.5c0-5.4,1.8-10.6,4.8-15c4.1,4.3,9.1,7.9,14.8,10.2c4.1,1.7,8.4,2.5,12.8,2.9
			c-0.1,2.2-0.3,4.4-0.3,6.6c0,10.5,1.3,20.8,3.6,30.6c-2.7,0.9-5.5,1.4-8.4,1.4C100.2,352,88,339.8,88,324.8L88,324.8z
			 M172.6,202.2c-2.8-6.7-2.8-14.1,0-20.8c2.8-6.7,8-12,14.7-14.7l8.8-3.6c5-2.1,10.4-2.4,15.7-1.3c-2.4,5.4-3.8,11.3-3.8,17.6
			c0,4.4,0.8,8.7,2.1,12.9c-11.8,4.3-22.8,10-32.9,17.2C175.3,207.2,173.7,204.8,172.6,202.2L172.6,202.2z M251.2,152h9.5
			c5.4,0,10.6,1.8,15,4.8c-4.3,4.1-7.9,9.1-10.2,14.8c-1.7,4.1-2.7,8.4-3,12.8c-2.2-0.1-4.3-0.3-6.5-0.3c-10.5,0-20.8,1.3-30.6,3.6
			c-0.9-2.7-1.4-5.5-1.4-8.4C224,164.2,236.2,152,251.2,152L251.2,152z M336.7,176.8c-5.6,2.1-10.8,5.4-15.1,9.7
			c-3.1,3.1-5.7,6.7-7.7,10.6c-11.1-5.2-23-9-35.4-11.1c0.2-2.8,0.7-5.7,1.8-8.3c2.8-6.7,8-12,14.7-14.7c6.7-2.8,14.1-2.8,20.8,0
			l8.8,3.6C329.7,168.7,333.8,172.3,336.7,176.8L336.7,176.8z M409.4,251.3l3.6,8.8c2.1,5,2.4,10.4,1.3,15.7
			c-5.4-2.4-11.3-3.8-17.6-3.8c-4.4,0-8.7,0.8-12.9,2.1c-4.3-11.8-10.1-22.9-17.2-32.9c2.2-1.9,4.5-3.5,7.2-4.6
			c6.7-2.8,14.1-2.8,20.8,0C401.4,239.4,406.6,244.6,409.4,251.3z M378.2,204.6c3.8,3.8,6.2,8.7,7.2,14c-6-0.2-12,0.8-17.7,3.2
			c-4.1,1.7-7.8,4.1-11.2,6.9c-8.4-9.2-17.9-17.2-28.5-23.8c1.3-2.6,2.9-5,4.9-7c10.3-10.3,28.2-10.3,38.5,0L378.2,204.6z M309.2,24
			h78.4l-57.9,127.4l-7.7-3.2c-10.3-4.3-21.5-4.3-31.8-0.4c-8-7.5-18.4-11.8-29.4-11.8h-2.5L309.2,24z M202.8,24l44.4,97.6
			l-7.2,15.9c-7,1.9-13.2,5.5-18.3,10.3c-10.2-3.9-21.5-3.9-31.6,0.4l-7.7,3.2L124.4,24L202.8,24z M133.8,204.6l6.7-6.7
			c3.8-3.8,8.7-6.2,14-7.2c-0.2,5.9,0.8,11.9,3.2,17.7c1.7,4.1,4.1,7.8,6.9,11.2c-9.2,8.4-17.2,17.9-23.8,28.5c-2.6-1.3-5-2.8-7-4.9
			c-5.2-5.2-8-12-8-19.3S128.7,209.7,133.8,204.6L133.8,204.6z M99,260.1l3.6-8.8c2.1-5,5.7-9.1,10.2-12c2.1,5.6,5.4,10.8,9.7,15.1
			c3.1,3.1,6.7,5.7,10.6,7.7c-5.3,11.1-9,23-11.1,35.5c-2.8-0.2-5.6-0.8-8.3-1.9c-6.7-2.8-12-8-14.7-14.7
			C96.2,274.2,96.2,266.8,99,260.1L99,260.1z M102.6,388.7l-3.6-8.8c-2.1-5-2.4-10.4-1.3-15.7c5.4,2.4,11.3,3.8,17.6,3.8
			c4.4,0,8.7-0.8,12.9-2.1c4.3,11.8,10.1,22.9,17.2,32.9c-2.2,1.9-4.5,3.5-7.2,4.6C124.3,409.2,108.4,402.6,102.6,388.7L102.6,388.7
			z M133.8,435.4c-3.8-3.8-6.2-8.8-7.2-14c0.4,0,0.8,0.1,1.1,0.1c5.6,0,11.2-1.1,16.6-3.3c4.1-1.7,7.8-4.1,11.2-6.9
			c8.4,9.2,17.9,17.2,28.5,23.8c-1.3,2.6-2.9,5-4.9,7c-10.3,10.3-28.2,10.3-38.5,0L133.8,435.4z M196.1,477l-8.8-3.6
			c-5-2.1-9.1-5.7-12-10.2c5.6-2.1,10.8-5.4,15.1-9.7c3.1-3.1,5.7-6.7,7.7-10.6c11.1,5.3,23,9,35.5,11.1c-0.2,2.8-0.8,5.6-1.9,8.3
			c-2.8,6.7-8,12-14.7,14.7C210.2,479.8,202.8,479.8,196.1,477L196.1,477z M260.8,488h-9.5c-5.4,0-10.6-1.8-15-4.8
			c4.3-4.1,7.9-9.1,10.2-14.8c1.7-4.1,2.7-8.4,3-12.7c2.2,0.1,4.3,0.3,6.5,0.3c10.5,0,20.8-1.3,30.6-3.6c0.9,2.7,1.4,5.5,1.4,8.4
			C288,475.8,275.8,488,260.8,488L260.8,488z M324.7,473.4l-8.8,3.6c-5,2.1-10.4,2.4-15.7,1.3c2.4-5.4,3.8-11.3,3.8-17.6
			c0-4.4-0.8-8.7-2.1-12.9c11.8-4.3,22.9-10.1,32.9-17.2c1.9,2.2,3.5,4.5,4.6,7.2C345.2,451.7,338.6,467.6,324.7,473.4L324.7,473.4z
			 M378.2,435.4l-6.7,6.7c-3.8,3.8-8.8,6.2-14,7.2c0.2-6-0.8-12-3.2-17.7c-1.7-4.1-4.1-7.8-6.9-11.2c9.2-8.4,17.2-17.9,23.8-28.5
			c2.6,1.3,5,2.9,7,4.9c5.2,5.2,8,12,8,19.3S383.3,430.3,378.2,435.4L378.2,435.4z M413,379.9l-3.6,8.8c-2.1,5-5.7,9.1-10.2,12
			c-2.1-5.6-5.4-10.8-9.7-15.1c-3.1-3.1-6.7-5.7-10.6-7.7c5.3-11.1,9-23,11.1-35.5c2.8,0.2,5.6,0.8,8.3,1.9c6.7,2.8,12,8,14.7,14.7
			C415.8,365.8,415.8,373.2,413,379.9L413,379.9z"/>
	</g>
</g>
</svg>
