<?xml version="1.0" encoding="utf-8"?>
<!-- Generator: Adobe Illustrator 17.1.0, SVG Export Plug-In . SVG Version: 6.00 Build 0)  -->
<!DOCTYPE svg PUBLIC "-//W3C//DTD SVG 1.1//EN" "http://www.w3.org/Graphics/SVG/1.1/DTD/svg11.dtd">
<svg version="1.1" id="Layer_5" xmlns="http://www.w3.org/2000/svg" xmlns:xlink="http://www.w3.org/1999/xlink" x="0px" y="0px"
	 viewBox="1834.6 0 2000 1984.3" enable-background="new 1834.6 0 2000 1984.3" xml:space="preserve">
<g>
	<g>
		<path fill="#FF0000" d="M3206.7,1240.2c0-132.5-69.8-248.8-174.4-314.7c-66.7,76.7-104.6,191.1-104.6,314.7s38.4,238,104.6,314.7
			C3136.9,1489,3206.7,1372.7,3206.7,1240.2z"/>
	</g>
	<g>
		<path fill="#FF0000" d="M2462.6,1240.2c0,132.5,69.8,248.8,174.4,314.7c66.7-76.7,104.6-191.1,104.6-314.7s-38.4-238-104.6-314.7
			C2532.4,991.3,2462.6,1107.6,2462.6,1240.2z"/>
	</g>
	<g>
		<path d="M2834.6,837.1c-222.1,0-403.1,181-403.1,403.1s181,403.1,403.1,403.1s403.1-181,403.1-403.1S3056.7,837.1,2834.6,837.1z
			 M2834.6,1581.2c-188,0-341-153.1-341-341s153.1-341,341-341s341,153.1,341,341S3022.6,1581.2,2834.6,1581.2z"/>
		<path d="M3547.7,1221.6c0-44.6-17.4-84.9-45.7-114.7c15.1-39.5,15.1-83.3-1.6-122.5l-14-34.1c-16.3-39.9-47.3-70.9-86-88.4
			c-1.2-42.6-17.8-82.5-48.4-112.8l-26-26c-30.6-30.6-70.5-47.3-113.6-48.4c-9.3-20.9-22.5-39.5-39.1-54.6L3440.8,31h-440.3
			l-165.9,365.5L2668.8,31h-440.3l267.4,588.7c-17.1,15.5-30.6,34.5-39.9,55c-42.2,1.6-82.5,17.8-112.8,48.1l-26,26
			c-30.6,30.6-47.3,70.5-48.4,113.6c-38.8,17.4-69.8,48.4-86,88l-14,34.1c-16.7,39.9-16.7,83.3-1.6,123.2
			c-29.1,31-45.7,71.3-45.7,113.9v36.8c0,44.6,17.4,84.9,45.7,114.7c-15.1,39.5-15.1,83.3,1.6,122.5l14,34.1
			c16.3,39.9,47.3,70.9,86,88.4c1.2,42.6,17.8,82.5,48.1,112.8l26,26c30.6,30.6,70.5,47.3,113.6,48.4c17.4,38.8,48.4,69.4,87.6,86
			l34.1,14c20.5,8.5,42.2,12.8,64.3,12.8c20.2,0,39.9-4.3,59.3-11.2c31,29.1,71.3,45.7,113.9,45.7h36.8c44.6,0,84.9-17.4,114.7-45.7
			c19.4,7.4,39.1,11.2,59.3,11.2c21.3,0,43-4.3,63.2-12.8l34.1-14c39.9-16.7,70.9-47.3,88.4-86.4c42.6-1.2,82.5-17.8,112.8-48.1
			l26-26c30.6-30.6,47.3-70.5,48.4-113.6c38.8-17.4,69.4-48.4,86-87.6l14-34.1c16.7-39.9,16.7-83.3,1.6-123.2
			c29.1-31,45.7-71.3,45.7-113.9L3547.7,1221.6z M3409.8,1277c-15.9-6.6-32.6-10.1-49.2-11.6c0.4-8.5,1.2-16.7,1.2-25.2
			c0-40.7-5-80.6-14-118.6c10.5-3.5,21.3-5.4,32.6-5.4c58.1,0,105.4,47.3,105.4,105.4v36.8c0,20.9-7,41.1-18.6,58.1
			C3451.2,1299.8,3431.9,1286.3,3409.8,1277L3409.8,1277z M2834.6,1705.2c-256.6,0-465.1-208.5-465.1-465.1s208.5-465.1,465.1-465.1
			s465.1,208.5,465.1,465.1S3091.2,1705.2,2834.6,1705.2z M2183.6,1258.8v-36.8c0-20.9,7-41.1,18.6-58.1
			c15.9,16.7,35.3,30.6,57.4,39.5c15.9,6.6,32.6,9.7,49.6,11.2c-0.4,8.5-1.2,17.1-1.2,25.6c0,40.7,5,80.6,14,118.6
			c-10.5,3.5-21.3,5.4-32.6,5.4C2230.8,1364.2,2183.6,1316.9,2183.6,1258.8L2183.6,1258.8z M2511.4,783.6c-10.9-26-10.9-54.6,0-80.6
			c10.9-26,31-46.5,57-57l34.1-14c19.4-8.1,40.3-9.3,60.8-5c-9.3,20.9-14.7,43.8-14.7,68.2c0,17.1,3.1,33.7,8.1,50
			c-45.7,16.7-88.4,38.8-127.5,66.7C2521.9,803,2515.7,793.7,2511.4,783.6L2511.4,783.6z M2816,589.1h36.8c20.9,0,41.1,7,58.1,18.6
			c-16.7,15.9-30.6,35.3-39.5,57.4c-6.6,15.9-10.5,32.6-11.6,49.6c-8.5-0.4-16.7-1.2-25.2-1.2c-40.7,0-80.6,5-118.6,14
			c-3.5-10.5-5.4-21.3-5.4-32.6C2710.6,636.4,2757.9,589.1,2816,589.1L2816,589.1z M3147.4,685.2c-21.7,8.1-41.9,20.9-58.5,37.6
			c-12,12-22.1,26-29.8,41.1c-43-20.2-89.1-34.9-137.2-43c0.8-10.9,2.7-22.1,7-32.2c10.9-26,31-46.5,57-57c26-10.9,54.6-10.9,80.6,0
			l34.1,14C3120.3,653.8,3136.2,667.7,3147.4,685.2L3147.4,685.2z M3429.1,973.9l14,34.1c8.1,19.4,9.3,40.3,5,60.8
			c-20.9-9.3-43.8-14.7-68.2-14.7c-17.1,0-33.7,3.1-50,8.1c-16.7-45.7-39.1-88.7-66.7-127.5c8.5-7.4,17.4-13.6,27.9-17.8
			c26-10.9,54.6-10.9,80.6,0C3398.1,927.8,3418.3,947.9,3429.1,973.9z M3308.2,792.9c14.7,14.7,24,33.7,27.9,54.3
			c-23.3-0.8-46.5,3.1-68.6,12.4c-15.9,6.6-30.2,15.9-43.4,26.7c-32.6-35.7-69.4-66.7-110.5-92.2c5-10.1,11.2-19.4,19-27.1
			c39.9-39.9,109.3-39.9,149.2,0L3308.2,792.9z M3040.8,93h303.8l-224.4,493.7l-29.8-12.4c-39.9-16.7-83.3-16.7-123.2-1.6
			c-31-29.1-71.3-45.7-113.9-45.7h-9.7L3040.8,93z M2628.5,93l172.1,378.2l-27.9,61.6c-27.1,7.4-51.2,21.3-70.9,39.9
			c-39.5-15.1-83.3-15.1-122.5,1.6l-29.8,12.4L2324.6,93H2628.5z M2361.1,792.9l26-26c14.7-14.7,33.7-24,54.3-27.9
			c-0.8,22.9,3.1,46.1,12.4,68.6c6.6,15.9,15.9,30.2,26.7,43.4c-35.7,32.6-66.7,69.4-92.2,110.5c-10.1-5-19.4-10.9-27.1-19
			c-20.2-20.2-31-46.5-31-74.8S2341.3,812.7,2361.1,792.9L2361.1,792.9z M2226.2,1008l14-34.1c8.1-19.4,22.1-35.3,39.5-46.5
			c8.1,21.7,20.9,41.9,37.6,58.5c12,12,26,22.1,41.1,29.8c-20.5,43-34.9,89.1-43,137.6c-10.9-0.8-21.7-3.1-32.2-7.4
			c-26-10.9-46.5-31-57-57C2215.3,1062.7,2215.3,1034,2226.2,1008L2226.2,1008z M2240.1,1506.4l-14-34.1c-8.1-19.4-9.3-40.3-5-60.8
			c20.9,9.3,43.8,14.7,68.2,14.7c17.1,0,33.7-3.1,50-8.1c16.7,45.7,39.1,88.7,66.7,127.5c-8.5,7.4-17.4,13.6-27.9,17.8
			C2324.2,1585.8,2262.6,1560.3,2240.1,1506.4L2240.1,1506.4z M2361.1,1687.4c-14.7-14.7-24-34.1-27.9-54.3c1.6,0,3.1,0.4,4.3,0.4
			c21.7,0,43.4-4.3,64.3-12.8c15.9-6.6,30.2-15.9,43.4-26.7c32.6,35.7,69.4,66.7,110.5,92.2c-5,10.1-11.2,19.4-19,27.1
			c-39.9,39.9-109.3,39.9-149.2,0L2361.1,1687.4z M2602.5,1848.6l-34.1-14c-19.4-8.1-35.3-22.1-46.5-39.5
			c21.7-8.1,41.9-20.9,58.5-37.6c12-12,22.1-26,29.8-41.1c43,20.5,89.1,34.9,137.6,43c-0.8,10.9-3.1,21.7-7.4,32.2
			c-10.9,26-31,46.5-57,57C2657.1,1859.5,2628.5,1859.5,2602.5,1848.6L2602.5,1848.6z M2853.2,1891.2h-36.8
			c-20.9,0-41.1-7-58.1-18.6c16.7-15.9,30.6-35.3,39.5-57.4c6.6-15.9,10.5-32.6,11.6-49.2c8.5,0.4,16.7,1.2,25.2,1.2
			c40.7,0,80.6-5,118.6-14c3.5,10.5,5.4,21.3,5.4,32.6C2958.7,1844,2911.4,1891.2,2853.2,1891.2L2853.2,1891.2z M3100.9,1834.7
			l-34.1,14c-19.4,8.1-40.3,9.3-60.8,5c9.3-20.9,14.7-43.8,14.7-68.2c0-17.1-3.1-33.7-8.1-50c45.7-16.7,88.7-39.1,127.5-66.7
			c7.4,8.5,13.6,17.4,17.8,27.9C3180.3,1750.6,3154.8,1812.2,3100.9,1834.7L3100.9,1834.7z M3308.2,1687.4l-26,26
			c-14.7,14.7-34.1,24-54.3,27.9c0.8-23.3-3.1-46.5-12.4-68.6c-6.6-15.9-15.9-30.2-26.7-43.4c35.7-32.6,66.7-69.4,92.2-110.5
			c10.1,5,19.4,11.2,27.1,19c20.2,20.2,31,46.5,31,74.8S3328,1667.6,3308.2,1687.4L3308.2,1687.4z M3443.1,1472.3l-14,34.1
			c-8.1,19.4-22.1,35.3-39.5,46.5c-8.1-21.7-20.9-41.9-37.6-58.5c-12-12-26-22.1-41.1-29.8c20.5-43,34.9-89.1,43-137.6
			c10.9,0.8,21.7,3.1,32.2,7.4c26,10.9,46.5,31,57,57C3453.9,1417.7,3453.9,1446.3,3443.1,1472.3L3443.1,1472.3z"/>
	</g>
</g>
</svg>
