<?xml version="1.0" encoding="utf-8"?>
<!-- Generator: Adobe Illustrator 17.1.0, SVG Export Plug-In . SVG Version: 6.00 Build 0)  -->
<!DOCTYPE svg PUBLIC "-//W3C//DTD SVG 1.1//EN" "http://www.w3.org/Graphics/SVG/1.1/DTD/svg11.dtd">
<svg version="1.1" id="Capa_1" xmlns="http://www.w3.org/2000/svg" xmlns:xlink="http://www.w3.org/1999/xlink" x="0px" y="0px"
	 viewBox="1834.6 0 2000 1984.3" enable-background="new 1834.6 0 2000 1984.3" xml:space="preserve">
<path fill="#FF0000" d="M2706.7,1440.2h-320.1v-99.5c-40.7-41.7-64.2-97.9-64.2-156.4l0.3-35.4l35.1-316.5h377.7l35.4,320.1v32.1
	c0,58.5-23.1,114.8-64.2,156.4V1440.2z"/>
<g>
	<path d="M3122.7,960c-70.4,0-128,57.5-128,128s57.5,128,128,128s128-57.5,128-128C3250.7,1017.6,3193.1,960,3122.7,960z
		 M3122.7,1152.2c-35.4,0-64.2-28.8-64.2-64.2s28.8-64.2,64.2-64.2s64.2,28.8,64.2,64.2C3186.8,1123.4,3158.1,1152.2,3122.7,1152.2z
		"/>
	<path d="M3428.9,313.8l-55.2-18.5C3326.4,120.4,3170.3,0,2987.8,0h-184.9c-441.5,0-800.3,358.8-800.3,800v448.1
		c0,117.1,90.3,213.3,205,223.2c25.5,124.3,87.6,239.1,178.9,329.1v183.9h64.2v-223.9h128v-64.2h-128v-128h192.1v416h64.2v-12.9
		c41.7,8.6,84.7,12.9,127.7,12.9c309.5,0,568.2-220.9,627.4-512.9c114.4-9.9,204.7-106.2,204.7-223.2V643.6
		C3666.7,493.7,3571.1,361.1,3428.9,313.8z M2066.4,1248.1c0-77.4,55.2-141.9,128-156.8V1344c0,20.5,1.3,40.7,3.3,61.2
		C2123.3,1391.6,2066.4,1326.5,2066.4,1248.1z M3410.7,1344.3c0,317.5-258.3,576.1-576.1,576.1c-43.3,0-86.3-5-128-14.6v-199.4
		c41,14.6,83.7,22.2,128,22.2c211.7,0,384-172.3,384-384h-64.2c0,176.6-143.5,320.1-320.1,320.1c-44.6,0-87.6-9.6-128-27.1v-68.8
		c0-35.4-28.8-64.2-64.2-64.2v-64.2H2578v64.2h-64.2v-64.2h-64.2v64.2c-35.4,0-64.2,28.8-64.2,64.2v136.6
		c-81.7-101.9-128-228.9-128-360.8V928c0-123.7,100.5-223.9,223.9-223.9h453.4c121,0,240.4-31.1,345.9-90.6
		c80,55.2,129,147.5,129,245.1v485.8H3410.7z M3471.6,1405.2c2-20.2,3-40.3,3-61.2v-252.7c73.1,14.9,128,79.4,128,156.8
		C3602.9,1326.5,3546,1391.6,3471.6,1405.2z M3474.6,1026.8v-168c0-126.3-67.1-245.1-175.6-310.2l-16.5-9.9l-16.5,9.9
		c-99.5,59.9-214,91.3-330,91.3h-453.4c-158.7,0-288,129.3-288,288v98.6c-49.9,7.3-94.3,30.8-128,65.1V800
		c0-405.8,330-736.2,736.2-736.2h184.9c158.7,0,293.3,108.1,327.7,262.9l4,17.9l89.3,29.8c116.1,38.7,194.1,146.8,194.1,269.2v448.1
		C3569.1,1057.3,3524.5,1033.8,3474.6,1026.8z"/>
	<rect x="2514.5" y="992.1" fill="#FFFFFF" width="64.2" height="192.1"/>
</g>
</svg>
