<?xml version="1.0" encoding="utf-8"?>
<!-- Generator: Adobe Illustrator 17.1.0, SVG Export Plug-In . SVG Version: 6.00 Build 0)  -->
<!DOCTYPE svg PUBLIC "-//W3C//DTD SVG 1.1//EN" "http://www.w3.org/Graphics/SVG/1.1/DTD/svg11.dtd">
<svg version="1.1" id="Capa_1" xmlns="http://www.w3.org/2000/svg" xmlns:xlink="http://www.w3.org/1999/xlink" x="0px" y="0px"
	 viewBox="0 0 1200 600" enable-background="new 0 0 1200 600" xml:space="preserve">
<path fill="#FF0000" d="M561.3,435.5h-96.8v-30.1c-12.3-12.6-19.4-29.6-19.4-47.3l0.1-10.7l10.6-95.7H570l10.7,96.8v9.7
	c0,17.7-7,34.7-19.4,47.3V435.5z"/>
<g>
	<path d="M687.1,290.3c-21.3,0-38.7,17.4-38.7,38.7c0,21.3,17.4,38.7,38.7,38.7s38.7-17.4,38.7-38.7
		C725.8,307.7,708.4,290.3,687.1,290.3z M687.1,348.4c-10.7,0-19.4-8.7-19.4-19.4c0-10.7,8.7-19.4,19.4-19.4s19.4,8.7,19.4,19.4
		C706.5,339.7,697.8,348.4,687.1,348.4z"/>
	<path d="M779.7,94.9L763,89.3C748.7,36.4,701.5,0,646.3,0h-55.9C456.9,0,348.4,108.5,348.4,241.9v135.5c0,35.4,27.3,64.5,62,67.5
		c7.7,37.6,26.5,72.3,54.1,99.5V600h19.4v-67.7h38.7v-19.4h-38.7v-38.7h58.1V600h19.4v-3.9C574,598.7,587,600,600,600
		c93.6,0,171.8-66.8,189.7-155.1c34.6-3,61.9-32.1,61.9-67.5V194.6C851.6,149.3,822.7,109.2,779.7,94.9z M367.7,377.4
		c0-23.4,16.7-42.9,38.7-47.4v76.4c0,6.2,0.4,12.3,1,18.5C384.9,420.8,367.7,401.1,367.7,377.4z M774.2,406.5
		c0,96-78.1,174.2-174.2,174.2c-13.1,0-26.1-1.5-38.7-4.4v-60.3c12.4,4.4,25.3,6.7,38.7,6.7c64,0,116.1-52.1,116.1-116.1h-19.4
		c0,53.4-43.4,96.8-96.8,96.8c-13.5,0-26.5-2.9-38.7-8.2v-20.8c0-10.7-8.7-19.4-19.4-19.4v-19.4h-19.4v19.4h-19.4v-19.4h-19.4v19.4
		c-10.7,0-19.4,8.7-19.4,19.4v41.3c-24.7-30.8-38.7-69.2-38.7-109.1V280.6c0-37.4,30.4-67.7,67.7-67.7h137.1
		c36.6,0,72.7-9.4,104.6-27.4c24.2,16.7,39,44.6,39,74.1V406.5z M792.6,424.9c0.6-6.1,0.9-12.2,0.9-18.5V330
		c22.1,4.5,38.7,24,38.7,47.4C832.3,401.1,815.1,420.8,792.6,424.9z M793.5,310.5v-50.8c0-38.2-20.3-74.1-53.1-93.8l-5-3l-5,3
		c-30.1,18.1-64.7,27.6-99.8,27.6H493.5c-48,0-87.1,39.1-87.1,87.1v29.8c-15.1,2.2-28.5,9.3-38.7,19.7v-88.2
		c0-122.7,99.8-222.6,222.6-222.6h55.9c48,0,88.7,32.7,99.1,79.5l1.2,5.4l27,9c35.1,11.7,58.7,44.4,58.7,81.4v135.5
		C822.1,319.7,808.6,312.6,793.5,310.5z"/>
	<rect x="503.2" y="300" fill="#FFFFFF" width="19.4" height="58.1"/>
</g>
</svg>
