<?xml version="1.0" encoding="utf-8"?>
<!-- Generator: Adobe Illustrator 17.1.0, SVG Export Plug-In . SVG Version: 6.00 Build 0)  -->
<!DOCTYPE svg PUBLIC "-//W3C//DTD SVG 1.1//EN" "http://www.w3.org/Graphics/SVG/1.1/DTD/svg11.dtd">
<svg version="1.1" id="Capa_1" xmlns="http://www.w3.org/2000/svg" xmlns:xlink="http://www.w3.org/1999/xlink" x="0px" y="0px"
	 viewBox="0 0 1200 600" enable-background="new 0 0 1200 600" xml:space="preserve">
<circle fill="#FF0000" cx="600" cy="300" r="145.2"/>
<g>
	<path d="M897.6,294C853.4,175,741,93.7,615,87.7c-5-0.3-10-0.6-15-0.6c-5.1,0-10,0.2-15,0.6C459,93.7,346.6,175,302.4,294l-2.2,5.8
		l1.1,3.2c41.4,125.5,157.9,209.9,290.1,209.9h17.2c132.2,0,248.7-84.3,290.1-209.9l1.1-3.2L897.6,294z M793.6,300
		c0,106.7-86.8,193.5-193.5,193.5S406.5,406.7,406.5,300S493.3,106.5,600,106.5S793.6,193.3,793.6,300z M320.8,300.2
		c25.1-67.2,73.4-121.4,133.6-155.2c-41.4,38.9-67.3,94-67.3,155.1c0,65.7,30,124.6,76.9,163.7C398.1,430.9,345.7,373.2,320.8,300.2
		z M736,463.7c47-39.1,76.9-97.9,76.9-163.7c0-61.1-25.9-116.2-67.2-155.1c60.2,33.9,108.5,88.1,133.6,155.2
		C854.3,373.2,801.9,430.9,736,463.7z"/>
	<path fill="#FFFFFF" d="M584.9,328.8c-2.7,6.1-4.2,12.7-4.2,19.6c0,26.7,21.7,48.4,48.4,48.4s48.4-21.7,48.4-48.4
		c0-21.5-14.1-39.5-33.5-45.8c8.8-11.4,14.2-25.7,14.2-41.3c0-37.4-30.4-67.7-67.7-67.7s-67.7,30.4-67.7,67.7
		C522.6,296.8,550.1,326,584.9,328.8z M658.1,348.4c0,16-13,29-29,29s-29-13-29-29c0-8.9,4.2-17.2,11.2-22.7c4.7-1.5,9.1-3.6,13.3-6
		l0,0c1.5-0.2,3-0.4,4.5-0.4C645,319.4,658.1,332.4,658.1,348.4z M590.3,212.9c26.7,0,48.4,21.7,48.4,48.4
		c0,26.7-21.7,48.4-48.4,48.4c-26.7,0-48.4-21.7-48.4-48.4C541.9,234.6,563.6,212.9,590.3,212.9z"/>
	<rect x="783.9" y="0" width="19.4" height="29"/>
	<rect x="753.1" y="12.8" transform="matrix(0.7072 -0.707 0.707 0.7072 204.0426 547.2706)" width="19.4" height="29"/>
	<rect x="735.5" y="48.4" width="29" height="19.4"/>
	<rect x="748.3" y="79.2" transform="matrix(0.7071 -0.7071 0.7071 0.7071 160.5878 565.3862)" width="29" height="19.4"/>
	<rect x="783.9" y="87.1" width="19.4" height="29"/>
	<rect x="814.7" y="74.4" transform="matrix(0.7072 -0.707 0.707 0.7072 178.5235 608.8373)" width="19.4" height="29"/>
	<rect x="822.6" y="48.4" width="29" height="19.4"/>
	<rect x="809.8" y="17.6" transform="matrix(0.7071 -0.7071 0.7071 0.7071 222.1482 590.897)" width="29" height="19.4"/>
	<rect x="464.5" y="522.6" width="19.4" height="29"/>
	<rect x="464.5" y="571" width="19.4" height="29"/>
	<rect x="483.9" y="551.6" width="29" height="19.4"/>
	<rect x="435.5" y="551.6" width="29" height="19.4"/>
	<rect x="348.4" y="454.8" width="19.4" height="29"/>
	<rect x="348.4" y="503.2" width="19.4" height="29"/>
	<rect x="367.7" y="483.9" width="29" height="19.4"/>
	<rect x="319.4" y="483.9" width="29" height="19.4"/>
</g>
</svg>
