<?xml version="1.0" encoding="utf-8"?>
<!-- Generator: Adobe Illustrator 17.1.0, SVG Export Plug-In . SVG Version: 6.00 Build 0)  -->
<!DOCTYPE svg PUBLIC "-//W3C//DTD SVG 1.1//EN" "http://www.w3.org/Graphics/SVG/1.1/DTD/svg11.dtd">
<svg version="1.1" id="Capa_1" xmlns="http://www.w3.org/2000/svg" xmlns:xlink="http://www.w3.org/1999/xlink" x="0px" y="0px"
	 viewBox="1834.6 0 2000 1984.3" enable-background="new 1834.6 0 2000 1984.3" xml:space="preserve">
<circle fill="#FF0000" cx="2834.6" cy="992.1" r="480.2"/>
<g>
	<path d="M3818.8,972.3c-146.2-393.5-517.9-662.4-934.6-682.3c-16.5-1-33.1-2-49.6-2c-16.9,0-33.1,0.7-49.6,2
		c-416.7,19.8-788.4,288.7-934.6,682.3l-7.3,19.2l3.6,10.6c136.9,415,522.2,694.2,959.4,694.2h56.9c437.2,0,822.5-278.8,959.4-694.2
		l3.6-10.6L3818.8,972.3z M3474.9,992.1c0,352.9-287.1,639.9-639.9,639.9s-640.3-287.1-640.3-639.9s287.1-639.9,639.9-639.9
		S3474.9,639.3,3474.9,992.1z M1911.3,992.8c83-222.2,242.7-401.5,441.8-513.3c-136.9,128.6-222.6,310.9-222.6,512.9
		c0,217.3,99.2,412.1,254.3,541.4C2166.9,1425,1993.7,1234.2,1911.3,992.8z M3284.4,1533.5c155.4-129.3,254.3-323.8,254.3-541.4
		c0-202.1-85.7-384.3-222.2-512.9c199.1,112.1,358.8,291.4,441.8,513.3C3675.6,1234.2,3502.3,1425,3284.4,1533.5z"/>
	<path fill="#FFFFFF" d="M2784.7,1087.4c-8.9,20.2-13.9,42-13.9,64.8c0,88.3,71.8,160.1,160.1,160.1c88.3,0,160.1-71.8,160.1-160.1
		c0-71.1-46.6-130.6-110.8-151.5c29.1-37.7,47-85,47-136.6c0-123.7-100.5-223.9-223.9-223.9c-123.4,0-223.9,100.5-223.9,223.9
		C2578.7,981.5,2669.6,1078.1,2784.7,1087.4z M3026.8,1152.2c0,52.9-43,95.9-95.9,95.9s-95.9-43-95.9-95.9c0-29.4,13.9-56.9,37-75.1
		c15.5-5,30.1-11.9,44-19.8l0,0c5-0.7,9.9-1.3,14.9-1.3C2983.5,1056.3,3026.8,1099.3,3026.8,1152.2z M2802.6,704.1
		c88.3,0,160.1,71.8,160.1,160.1s-71.8,160.1-160.1,160.1c-88.3,0-160.1-71.8-160.1-160.1C2642.5,775.8,2714.3,704.1,2802.6,704.1z"
		/>
	<rect x="3442.8" y="0" width="64.2" height="95.9"/>
	<rect x="3340.9" y="42.3" transform="matrix(-0.7072 0.707 -0.707 -0.7072 5822.2285 -2230.7454)" width="64.2" height="95.9"/>
	<rect x="3282.8" y="160.1" width="95.9" height="64.2"/>
	<rect x="3325.2" y="261.8" transform="matrix(-0.7071 0.7071 -0.7071 -0.7071 5966.0991 -1883.428)" width="95.9" height="64.2"/>
	<rect x="3442.8" y="288" width="64.2" height="95.9"/>
	<rect x="3544.6" y="245.9" transform="matrix(-0.7072 0.707 -0.707 -0.7072 6313.9692 -2027.0969)" width="64.2" height="95.9"/>
	<rect x="3570.8" y="160.1" width="95.9" height="64.2"/>
	<rect x="3528.5" y="58.3" transform="matrix(-0.7071 0.7071 -0.7071 -0.7071 6169.3491 -2374.6079)" width="95.9" height="64.2"/>
	<rect x="2386.5" y="1728.3" width="64.2" height="95.9"/>
	<rect x="2386.5" y="1888.3" width="64.2" height="95.9"/>
	<rect x="2450.7" y="1824.2" width="95.9" height="64.2"/>
	<rect x="2290.6" y="1824.2" width="95.9" height="64.2"/>
	<rect x="2002.6" y="1504.1" width="64.2" height="95.9"/>
	<rect x="2002.6" y="1664.1" width="64.2" height="95.9"/>
	<rect x="2066.4" y="1600.3" width="95.9" height="64.2"/>
	<rect x="1906.7" y="1600.3" width="95.9" height="64.2"/>
</g>
</svg>
