<?xml version="1.0" encoding="utf-8"?>
<!-- Generator: Adobe Illustrator 17.1.0, SVG Export Plug-In . SVG Version: 6.00 Build 0)  -->
<!DOCTYPE svg PUBLIC "-//W3C//DTD SVG 1.1//EN" "http://www.w3.org/Graphics/SVG/1.1/DTD/svg11.dtd">
<svg version="1.1" id="_x33_0" xmlns="http://www.w3.org/2000/svg" xmlns:xlink="http://www.w3.org/1999/xlink" x="0px" y="0px"
	 viewBox="1834.6 0 2000 1984.3" enable-background="new 1834.6 0 2000 1984.3" xml:space="preserve">
<g>
	<path d="M2884.6,403.1h-267V279h-62v124h-267l-105,209.7v38.4c0,68.2,55.8,124,124,124s124-55.8,124-124v-38.4l-74-147.7h198v372
		h-124v62h310v-62h-124v-372h198l-74,147.7v38.4c0,68.2,55.8,124,124,124s124-55.8,124-124v-38.4L2884.6,403.1z M2307.6,503.4
		l43,85.6h-85.6L2307.6,503.4z M2307.6,713.1c-34.1,0-62-27.9-62-62h124C2369.6,685.2,2341.7,713.1,2307.6,713.1z M2908.7,589.1
		H2823l43-85.6L2908.7,589.1z M2865.6,713.1c-34.1,0-62-27.9-62-62h124C2927.7,685.2,2899.8,713.1,2865.6,713.1z"/>
	<path d="M3237.7,1149.5V93c0-34.1-27.9-62-62-62H1935.5c-34.1,0-62,27.9-62,62v1798.2c0,34.1,27.9,62,62,62h1240.2
		c34.1,0,62-27.9,62-62v-71.3h-62v71.3H1935.5V477.8L2320.4,93h855.3v1056.5H3237.7z M2077.8,93l-142.2,142.2V93H2077.8z
		 M1935.5,390.3v-67.4L2165.3,93h67.4L1935.5,390.3z"/>
	<g>
		<g>
			<path fill="#FF0000" d="M3392.7,1954.8l-9.7-3.1c-184.1-61.2-330.6-207.7-391.8-391.8l-5-15.5l9.7-13.2
				c55-73.6,80.2-164.7,69.8-256.2l-18.6-165.9l53.5,8.9c98.4,16.3,199.6-15.9,270.1-86.4l22.1-21.7l22.1,22.1
				c70.5,70.5,171.7,102.7,270.1,86.4l53.5-8.9l-18.6,165.9c-10.1,91.5,14.7,182.5,69.8,256.2l9.7,13.2l-5,15.5
				c-61.2,183.7-207.7,330.2-391.8,391.4L3392.7,1954.8z"/>
		</g>
	</g>
	<g>
		<path fill="#FFFFFF" d="M3488.4,1674.2c-6.6,0-13.2-2.3-19-6.2l-76.7-58.9l-77.1,58.9c-10.9,8.1-25.6,8.5-36.4,0.8
			s-15.9-21.7-12-34.5l30.2-97.7l-78.7-60.1c-10.5-8.1-14.7-22.1-10.5-34.5c4.3-12.4,16.3-20.9,29.5-20.9h95.7l29.8-96.5
			c3.9-12.8,15.9-21.7,29.5-21.7s25.6,8.9,29.5,21.7l29.8,96.5h95.7c13.2,0,25.2,8.5,29.5,20.9c4.3,12.4,0,26.4-10.5,34.5
			l-78.7,60.1l30.2,97.7c3.9,12.8-0.8,26.7-12,34.5C3500.8,1672.3,3494.6,1674.2,3488.4,1674.2L3488.4,1674.2z M3392.7,1539
			c6.6,0,13.2,1.9,19,6.2l18.6,14.3l-8.1-25.6c-3.9-12.4,0.4-26,10.9-33.7l22.9-17.4h-26.7c-13.6,0-25.6-8.9-29.5-21.7l-7-22.5
			l-7,22.5c-3.9,13.2-15.9,21.7-29.5,21.7h-26.7l22.9,17.4c10.5,7.8,14.7,21.3,10.9,33.7l-8.1,25.6l18.6-14.3
			C3379.5,1541.3,3386.1,1539,3392.7,1539z"/>
	</g>
	<g>
		<path fill="#FF0000" d="M2121.6,1054.1h868.1v403.1h-868.1V1054.1z"/>
	</g>
	<g>
		<path d="M2493.6,1705.2h-372v-186h372V1705.2z M2183.6,1643.2h248v-62h-248V1643.2z"/>
	</g>
	<g>
		<g>
			<path fill="#FF0000" d="M2648.6,1705.2c-51.2,0-93-41.9-93-93s41.9-93,93-93s93,41.9,93,93S2699.8,1705.2,2648.6,1705.2z"/>
		</g>
	</g>
	<g>
		<g>
			<path fill="#FF0000" d="M2896.7,1705.2c-51.2,0-93-41.9-93-93s41.9-93,93-93s93,41.9,93,93S2947.8,1705.2,2896.7,1705.2z"/>
		</g>
	</g>
	<g>
		<path fill="#FFFFFF" d="M2121.6,1395.2h372v62h-372V1395.2z"/>
	</g>
	<g>
		<path fill="#FFFFFF" d="M2555.6,1395.2h434.1v62h-434.1V1395.2z"/>
	</g>
	<g>
		<path fill="#FFFFFF" d="M2121.6,1147.1h372v62h-372V1147.1z"/>
	</g>
	<g>
		<path fill="#FFFFFF" d="M2555.6,1147.1h434.1v62h-434.1V1147.1z"/>
	</g>
	<g>
		<path fill="#FFFFFF" d="M2121.6,1271.2h868.1v62h-868.1V1271.2z"/>
	</g>
	<g>
		<path fill="#FFFFFF" d="M2121.6,1023.1h868.1v62h-868.1V1023.1z"/>
	</g>
</g>
</svg>
