<?xml version="1.0" encoding="utf-8"?>
<!-- Generator: Adobe Illustrator 17.1.0, SVG Export Plug-In . SVG Version: 6.00 Build 0)  -->
<!DOCTYPE svg PUBLIC "-//W3C//DTD SVG 1.1//EN" "http://www.w3.org/Graphics/SVG/1.1/DTD/svg11.dtd">
<svg version="1.1" id="_x33_0" xmlns="http://www.w3.org/2000/svg" xmlns:xlink="http://www.w3.org/1999/xlink" x="0px" y="0px"
	 viewBox="0 0 512 512" enable-background="new 0 0 512 512" xml:space="preserve">
<g>
	<path d="M268.9,104H200V72h-16v32h-68.9L88,158.1v9.9c0,17.6,14.4,32,32,32s32-14.4,32-32v-9.9L132.9,120H184v96h-32v16h80v-16h-32
		v-96h51.1L232,158.1v9.9c0,17.6,14.4,32,32,32s32-14.4,32-32v-9.9L268.9,104z M120,129.9l11.1,22.1h-22.1L120,129.9z M120,184
		c-8.8,0-16-7.2-16-16h32C136,176.8,128.8,184,120,184z M275.1,152h-22.1l11.1-22.1L275.1,152z M264,184c-8.8,0-16-7.2-16-16h32
		C280,176.8,272.8,184,264,184z"/>
	<path d="M360,296.6V24c0-8.8-7.2-16-16-16H24C15.2,8,8,15.2,8,24v464c0,8.8,7.2,16,16,16h320c8.8,0,16-7.2,16-16v-18.4h-16V488H24
		V123.3L123.3,24H344v272.6L360,296.6z M60.7,24L24,60.7V24H60.7z M24,100.7V83.3L83.3,24h17.4L24,100.7z"/>
	<g>
		<g>
			<path fill="#FF0000" d="M400,504.4l-2.5-0.8C350,487.8,312.2,450,296.4,402.5l-1.3-4l2.5-3.4c14.2-19,20.7-42.5,18-66.1
				l-4.8-42.8l13.8,2.3c25.4,4.2,51.5-4.1,69.7-22.3l5.7-5.6l5.7,5.7c18.2,18.2,44.3,26.5,69.7,22.3l13.8-2.3l-4.8,42.8
				c-2.6,23.6,3.8,47.1,18,66.1l2.5,3.4l-1.3,4C487.8,450,450,487.8,402.5,503.6L400,504.4z"/>
		</g>
	</g>
	<g>
		<path fill="#FFFFFF" d="M424.7,432c-1.7,0-3.4-0.6-4.9-1.6L400,415.2l-19.9,15.2c-2.8,2.1-6.6,2.2-9.4,0.2c-2.8-2-4.1-5.6-3.1-8.9
			l7.8-25.2l-20.3-15.5c-2.7-2.1-3.8-5.7-2.7-8.9s4.2-5.4,7.6-5.4h24.7l7.7-24.9c1-3.3,4.1-5.6,7.6-5.6s6.6,2.3,7.6,5.6l7.7,24.9
			H440c3.4,0,6.5,2.2,7.6,5.4s0,6.8-2.7,8.9l-20.3,15.5l7.8,25.2c1,3.3-0.2,6.9-3.1,8.9C427.9,431.5,426.3,432,424.7,432L424.7,432z
			 M400,397.1c1.7,0,3.4,0.5,4.9,1.6l4.8,3.7l-2.1-6.6c-1-3.2,0.1-6.7,2.8-8.7l5.9-4.5h-6.9c-3.5,0-6.6-2.3-7.6-5.6l-1.8-5.8
			l-1.8,5.8c-1,3.4-4.1,5.6-7.6,5.6h-6.9l5.9,4.5c2.7,2,3.8,5.5,2.8,8.7l-2.1,6.6l4.8-3.7C396.6,397.7,398.3,397.1,400,397.1z"/>
	</g>
	<g>
		<path fill="#FF0000" d="M72,272h224v104H72V272z"/>
	</g>
	<g>
		<path d="M168,440H72v-48h96V440z M88,424h64v-16H88V424z"/>
	</g>
	<g>
		<g>
			<path fill="#FF0000" d="M208,440c-13.2,0-24-10.8-24-24s10.8-24,24-24s24,10.8,24,24S221.2,440,208,440z"/>
		</g>
	</g>
	<g>
		<g>
			<path fill="#FF0000" d="M272,440c-13.2,0-24-10.8-24-24s10.8-24,24-24s24,10.8,24,24S285.2,440,272,440z"/>
		</g>
	</g>
	<g>
		<path fill="#FFFFFF" d="M72,360h96v16H72V360z"/>
	</g>
	<g>
		<path fill="#FFFFFF" d="M184,360h112v16H184V360z"/>
	</g>
	<g>
		<path fill="#FFFFFF" d="M72,296h96v16H72V296z"/>
	</g>
	<g>
		<path fill="#FFFFFF" d="M184,296h112v16H184V296z"/>
	</g>
	<g>
		<path fill="#FFFFFF" d="M72,328h224v16H72V328z"/>
	</g>
	<g>
		<path fill="#FFFFFF" d="M72,264h224v16H72V264z"/>
	</g>
</g>
</svg>
