<?xml version="1.0" encoding="utf-8"?>
<!-- Generator: Adobe Illustrator 17.1.0, SVG Export Plug-In . SVG Version: 6.00 Build 0)  -->
<!DOCTYPE svg PUBLIC "-//W3C//DTD SVG 1.1//EN" "http://www.w3.org/Graphics/SVG/1.1/DTD/svg11.dtd">
<svg version="1.1" id="Layer_5" xmlns="http://www.w3.org/2000/svg" xmlns:xlink="http://www.w3.org/1999/xlink" x="0px" y="0px"
	 viewBox="0 0 512 512" enable-background="new 0 0 512 512" xml:space="preserve">
<g>
	<path fill="#FF0000" d="M368,248.2v-51.8l-22.7-42.9c-6.1-11.5-9.3-24.4-9.3-37.4V112c0-14.6,4-28.2,10.8-40H160
		c-8.8,0-16,7.2-16,16v88.1c19.4,14.6,32,37.7,32,63.9v4.1c0,13-3.2,25.9-9.3,37.4L144,324.4v51.8c14.7,5.8,24,14.3,24,23.8
		s-9.3,17.9-24,23.8v0.2c0,8.8,7.2,16,16,16h192c8.8,0,16-7.2,16-16V295.8c-14.7-5.9-24-14.3-24-23.8C344,262.5,353.3,254,368,248.2
		z"/>
	<path fill="#FF0000" d="M416,168c-30.9,0-56-25.1-56-56s25.1-56,56-56s56,25.1,56,56S446.9,168,416,168z"/>
	<path fill="#FF0000" d="M96,296c-30.9,0-56-25.1-56-56s25.1-56,56-56s56,25.1,56,56S126.9,296,96,296z"/>
</g>
<path d="M392,184h16v16h-16V184z"/>
<path d="M424,184h16v16h-16V184z"/>
<path d="M72,312h16v16H72V312z"/>
<path d="M104,312h16v16h-16V312z"/>
<path d="M216,456h80v16h-80V456z"/>
<path d="M248,40h48v16h-48V40z"/>
<path d="M216,40h16v16h-16V40z"/>
<path fill="#FFFFFF" d="M192,392h16v16h-16V392z"/>
<path fill="#FFFFFF" d="M224,392h16v16h-16V392z"/>
<path fill="#FFFFFF" d="M256,392h16v16h-16V392z"/>
<path fill="#FFFFFF" d="M288,392h16v16h-16V392z"/>
<path fill="#FFFFFF" d="M288,360h16v16h-16V360z"/>
<path fill="#FFFFFF" d="M288,328h16v16h-16V328z"/>
<path fill="#FFFFFF" d="M256,328h16v16h-16V328z"/>
<path fill="#FFFFFF" d="M224,328h16v16h-16V328z"/>
<path fill="#FFFFFF" d="M192,328h16v16h-16V328z"/>
<path fill="#FFFFFF" d="M192,264h16v16h-16V264z"/>
<path fill="#FFFFFF" d="M224,264h16v16h-16V264z"/>
<path fill="#FFFFFF" d="M256,264h16v16h-16V264z"/>
<path fill="#FFFFFF" d="M288,264h16v16h-16V264z"/>
<path fill="#FFFFFF" d="M192,296h16v16h-16V296z"/>
<path fill="#FFFFFF" d="M176,104h16v16h-16V104z"/>
<path fill="#FFFFFF" d="M208,104h104v16H208V104z"/>
<path fill="#FFFFFF" d="M176,136h16v16h-16V136z"/>
<path fill="#FFFFFF" d="M208,136h104v16H208V136z"/>
<path fill="#FFFFFF" d="M200,248h112v-80H200V248z M216,184h80v48h-80V184z"/>
<path d="M504,116.1V112c0-48.5-39.5-88-88-88c-7.7,0-15.1,1.1-22.2,2.9C386.7,15.3,374.1,8,360,8H152c-22.1,0-40,17.9-40,40v105.5
	c-5.2-1-10.5-1.5-16-1.5c-48.5,0-88,39.5-88,88v4.1c0,14.3,3.5,28.5,10.2,41.2l41.7,78.8C32.6,370.6,16,383.9,16,400
	c0,22.8,34.4,40,80,40c5.5,0,10.9-0.3,16-0.7V464c0,22.1,17.9,40,40,40h208c22.1,0,40-17.9,40-40V311.3c5.1,0.5,10.5,0.7,16,0.7
	c45.6,0,80-17.2,80-40c0-16.1-16.6-29.4-43.9-35.9l41.7-78.8C500.5,144.7,504,130.4,504,116.1z M24,244.1V240c0-39.7,32.3-72,72-72
	s72,32.3,72,72v4.1c0,11.7-2.9,23.3-8.4,33.7l-59,111.4c-1.8,3.5-7.5,3.5-9.3,0l-59-111.4C26.9,267.5,24,255.8,24,244.1z M32,400
	c0-7.1,12.6-16.5,35.7-21.2l9.4,17.8c3.7,7,10.9,11.3,18.8,11.3s15.1-4.3,18.8-11.3l9.4-17.8c23.2,4.7,35.7,14.1,35.7,21.2
	c0,9.8-24.9,24-64,24S32,409.8,32,400L32,400z M384,464c0,13.2-10.8,24-24,24H152c-13.2,0-24-10.8-24-24v-27.1
	c28.8-5.9,48-19.8,48-36.9c0-16.1-16.6-29.4-43.9-35.9l41.7-78.8c6.7-12.6,10.2-26.9,10.2-41.2V240c0-37.2-23.3-69-56-81.9V48
	c0-13.2,10.8-24,24-24h208c7.3,0,13.9,3.2,18.3,8.6C348.6,46.8,328,77,328,112v4.1c0,14.3,3.5,28.5,10.2,41.2l41.7,78.8
	c-22.7,5.4-37.9,15.4-42.5,27.9H320v16h17.5c5,13.3,22.4,23.9,46.5,28.9V464z M480,272c0,9.8-24.9,24-64,24s-64-14.2-64-24
	c0-7.1,12.6-16.5,35.7-21.2l9.4,17.8c3.7,7,10.9,11.3,18.8,11.3s15.1-4.3,18.8-11.3l9.4-17.8C467.4,255.5,480,264.9,480,272z
	 M488,116.1c0,11.7-2.9,23.3-8.4,33.7l-59,111.4c-1.8,3.5-7.5,3.5-9.3,0l-59-111.4c-5.5-10.3-8.4-22-8.4-33.7V112
	c0-39.7,32.3-72,72-72s72,32.3,72,72V116.1z"/>
</svg>
