<?xml version="1.0" encoding="utf-8"?>
<!-- Generator: Adobe Illustrator 17.1.0, SVG Export Plug-In . SVG Version: 6.00 Build 0)  -->
<!DOCTYPE svg PUBLIC "-//W3C//DTD SVG 1.1//EN" "http://www.w3.org/Graphics/SVG/1.1/DTD/svg11.dtd">
<svg version="1.1" id="Layer_5" xmlns="http://www.w3.org/2000/svg" xmlns:xlink="http://www.w3.org/1999/xlink" x="0px" y="0px"
	 viewBox="1834.6 0 2000 1984.3" enable-background="new 1834.6 0 2000 1984.3" xml:space="preserve">
<g>
	<path fill="#FF0000" d="M3268.7,961.9V761.1l-88-166.3c-23.6-44.6-36-94.6-36-144.9v-15.9c0-56.6,15.5-109.3,41.9-155h-723.9
		c-34.1,0-62,27.9-62,62v341.4c75.2,56.6,124,146.1,124,247.6V946c0,50.4-12.4,100.4-36,144.9l-88,166.3V1458
		c57,22.5,93,55.4,93,92.2s-36,69.4-93,92.2v0.8c0,34.1,27.9,62,62,62h744.1c34.1,0,62-27.9,62-62v-496.8c-57-22.9-93-55.4-93-92.2
		S3211.7,984.4,3268.7,961.9z"/>
	<path fill="#FF0000" d="M3454.7,651.1c-119.8,0-217-97.3-217-217s97.3-217,217-217s217,97.3,217,217S3574.5,651.1,3454.7,651.1z"/>
	<path fill="#FF0000" d="M2214.6,1147.1c-119.8,0-217-97.3-217-217s97.3-217,217-217s217,97.3,217,217S2334.3,1147.1,2214.6,1147.1z
		"/>
</g>
<path d="M3361.7,713.1h62v62h-62V713.1z"/>
<path d="M3485.7,713.1h62v62h-62V713.1z"/>
<path d="M2121.6,1209.2h62v62h-62V1209.2z"/>
<path d="M2245.6,1209.2h62v62h-62V1209.2z"/>
<path d="M2679.6,1767.2h310v62h-310V1767.2z"/>
<path d="M2803.6,155h186v62h-186V155z"/>
<path d="M2679.6,155h62v62h-62V155z"/>
<path fill="#FFFFFF" d="M2586.6,1519.2h62v62h-62V1519.2z"/>
<path fill="#FFFFFF" d="M2710.6,1519.2h62v62h-62V1519.2z"/>
<path fill="#FFFFFF" d="M2834.6,1519.2h62v62h-62V1519.2z"/>
<path fill="#FFFFFF" d="M2958.7,1519.2h62v62h-62V1519.2z"/>
<path fill="#FFFFFF" d="M2958.7,1395.2h62v62h-62V1395.2z"/>
<path fill="#FFFFFF" d="M2958.7,1271.2h62v62h-62V1271.2z"/>
<path fill="#FFFFFF" d="M2834.6,1271.2h62v62h-62V1271.2z"/>
<path fill="#FFFFFF" d="M2710.6,1271.2h62v62h-62V1271.2z"/>
<path fill="#FFFFFF" d="M2586.6,1271.2h62v62h-62V1271.2z"/>
<path fill="#FFFFFF" d="M2586.6,1023.1h62v62h-62V1023.1z"/>
<path fill="#FFFFFF" d="M2710.6,1023.1h62v62h-62V1023.1z"/>
<path fill="#FFFFFF" d="M2834.6,1023.1h62v62h-62V1023.1z"/>
<path fill="#FFFFFF" d="M2958.7,1023.1h62v62h-62V1023.1z"/>
<path fill="#FFFFFF" d="M2586.6,1147.1h62v62h-62V1147.1z"/>
<path fill="#FFFFFF" d="M2524.6,403.1h62v62h-62V403.1z"/>
<path fill="#FFFFFF" d="M2648.6,403.1h403.1v62h-403.1V403.1z"/>
<path fill="#FFFFFF" d="M2524.6,527.1h62v62h-62V527.1z"/>
<path fill="#FFFFFF" d="M2648.6,527.1h403.1v62h-403.1V527.1z"/>
<path fill="#FFFFFF" d="M2617.6,961.1h434.1v-310h-434.1V961.1z M2679.6,713.1h310v186h-310V713.1z"/>
<path d="M3795.8,449.9v-15.9c0-188-153.1-341-341-341c-29.8,0-58.5,4.3-86,11.2c-27.5-45-76.3-73.2-131-73.2h-806.1
	c-85.6,0-155,69.4-155,155v408.9c-20.2-3.9-40.7-5.8-62-5.8c-188,0-341,153.1-341,341V946c0,55.4,13.6,110.5,39.5,159.7l161.6,305.4
	c-105.8,25.2-170.1,76.7-170.1,139.1c0,88.4,133.3,155,310,155c21.3,0,42.2-1.2,62-2.7v95.7c0,85.6,69.4,155,155,155h806.1
	c85.6,0,155-69.4,155-155v-591.8c19.8,1.9,40.7,2.7,62,2.7c176.7,0,310-66.7,310-155c0-62.4-64.3-113.9-170.1-139.1l161.6-305.4
	C3782.2,560.8,3795.8,505.4,3795.8,449.9z M1935.5,946v-15.9c0-153.9,125.2-279,279-279s279,125.2,279,279V946
	c0,45.3-11.2,90.3-32.6,130.6l-228.7,431.7c-7,13.6-29.1,13.6-36,0l-228.7-431.7C1946.8,1036.7,1935.5,991.3,1935.5,946z
	 M1966.5,1550.2c0-27.5,48.8-63.9,138.4-82.2l36.4,69c14.3,27.1,42.2,43.8,72.9,43.8c30.6,0,58.5-16.7,72.9-43.8l36.4-69
	c89.9,18.2,138.4,54.6,138.4,82.2c0,38-96.5,93-248,93C2062.3,1643.2,1966.5,1588.2,1966.5,1550.2L1966.5,1550.2z M3330.7,1798.2
	c0,51.2-41.9,93-93,93h-806.1c-51.2,0-93-41.9-93-93v-105c111.6-22.9,186-76.7,186-143c0-62.4-64.3-113.9-170.1-139.1l161.6-305.4
	c26-48.8,39.5-104.3,39.5-159.7v-15.9c0-144.2-90.3-267.4-217-317.4V186c0-51.2,41.9-93,93-93h806.1c28.3,0,53.9,12.4,70.9,33.3
	c-115.1,55-194.9,172.1-194.9,307.7v15.9c0,55.4,13.6,110.5,39.5,159.7L3314.8,915c-88,20.9-146.9,59.7-164.7,108.1h-67.4v62h67.8
	c19.4,51.5,86.8,92.6,180.2,112V1798.2z M3702.8,1054.1c0,38-96.5,93-248,93s-248-55-248-93c0-27.5,48.8-63.9,138.4-82.2l36.4,69
	c14.3,27.1,42.2,43.8,72.9,43.8c30.6,0,58.5-16.7,72.9-43.8l36.4-69C3653.9,990.2,3702.8,1026.6,3702.8,1054.1z M3733.8,449.9
	c0,45.3-11.2,90.3-32.6,130.6l-228.7,431.7c-7,13.6-29.1,13.6-36,0l-228.7-431.7c-21.3-39.9-32.6-85.3-32.6-130.6v-15.9
	c0-153.9,125.2-279,279-279s279,125.2,279,279v15.9H3733.8z"/>
</svg>
