<?xml version="1.0" encoding="utf-8"?>
<!-- Generator: Adobe Illustrator 17.1.0, SVG Export Plug-In . SVG Version: 6.00 Build 0)  -->
<!DOCTYPE svg PUBLIC "-//W3C//DTD SVG 1.1//EN" "http://www.w3.org/Graphics/SVG/1.1/DTD/svg11.dtd">
<svg version="1.1" id="Capa_1" xmlns="http://www.w3.org/2000/svg" xmlns:xlink="http://www.w3.org/1999/xlink" x="0px" y="0px"
	 viewBox="0 0 1200 600" enable-background="new 0 0 1200 600" xml:space="preserve">
<g>
	<rect x="464.5" y="541.9" fill="#FF0000" width="271" height="19.4"/>
	<rect x="464.5" y="503.2" fill="#FF0000" width="271" height="19.4"/>
	<path fill="#FF0000" d="M745.2,193.5H454.8c-16,0-29-13-29-29V29c0-16,13-29,29-29h290.3c16,0,29,13,29,29v135.5
		C774.2,180.5,761.2,193.5,745.2,193.5z"/>
</g>
<g>
	<path d="M880.6,580.6V193.5h-67.7v-77.4h-38.7v19.4h19.4v77.4h-19.4v19.4h19.4v348.4h-38.7V406.5h19.4v-58.1H425.8v58.1h19.4v174.2
		h-38.7V232.3h348.4v-19.4H406.5v-77.4h19.4v-19.4h-38.7v77.4h-67.7v387.1H300V600h600v-19.4H880.6z M812.9,212.9h48.4v367.7h-48.4
		V212.9z M735.5,580.6H609.7V406.5h125.8V580.6z M445.2,367.7h309.7v19.4H445.2V367.7z M464.5,406.5h125.8v174.2H464.5V406.5z
		 M338.7,212.9h48.4v367.7h-48.4V212.9z"/>
	<path fill="#FFFFFF" d="M600,164.5c82.5,0,113.8-60.8,115.1-63.4l2.2-4.3l-2.2-4.3C713.8,89.9,682.5,29,600,29
		S486.2,89.9,484.9,92.4l-2.2,4.3l2.2,4.3C486.2,103.7,517.5,164.5,600,164.5z M551.6,96.8c0-26.7,21.7-48.4,48.4-48.4
		s48.4,21.7,48.4,48.4s-21.7,48.4-48.4,48.4S551.6,123.5,551.6,96.8z M695.2,96.7c-4.7,7.3-16.3,22.3-36.5,33.7
		c5.7-9.9,9-21.4,9-33.7c0-12.4-3.4-23.9-9.2-33.9C678.9,74.3,690.5,89.4,695.2,96.7z M541.3,63.1c-5.7,9.9-9,21.4-9,33.7
		c0,12.4,3.4,23.9,9.2,33.9c-20.3-11.4-31.9-26.5-36.7-33.9C509.5,89.5,521.1,74.5,541.3,63.1z"/>
	<path d="M425.8,329h348.4v-77.4H425.8V329z M541.9,309.7V271h116.1v38.7H541.9z M754.8,309.7h-77.4V271h77.4V309.7z M445.2,271
		h77.4v38.7h-77.4V271z"/>
</g>
</svg>
