<?xml version="1.0" encoding="utf-8"?>
<!-- Generator: Adobe Illustrator 17.1.0, SVG Export Plug-In . SVG Version: 6.00 Build 0)  -->
<!DOCTYPE svg PUBLIC "-//W3C//DTD SVG 1.1//EN" "http://www.w3.org/Graphics/SVG/1.1/DTD/svg11.dtd">
<svg version="1.1" id="Capa_1" xmlns="http://www.w3.org/2000/svg" xmlns:xlink="http://www.w3.org/1999/xlink" x="0px" y="0px"
	 viewBox="1834.6 0 2000 1984.3" enable-background="new 1834.6 0 2000 1984.3" xml:space="preserve">
<g>
	<rect x="2386.5" y="1792.1" fill="#FF0000" width="896.2" height="64.2"/>
	<rect x="2386.5" y="1664.1" fill="#FF0000" width="896.2" height="64.2"/>
	<path fill="#FF0000" d="M3314.8,639.9h-960.4c-52.9,0-95.9-43-95.9-95.9V95.9c0-52.9,43-95.9,95.9-95.9h960
		c52.9,0,95.9,43,95.9,95.9V544C3410.7,596.9,3367.7,639.9,3314.8,639.9z"/>
</g>
<g>
	<path d="M3762.6,1920.1V639.9h-223.9V384h-128v64.2h64.2v256h-64.2v64.2h64.2v1152.2h-128v-576.1h64.2v-192.1H2258.6v192.1h64.2
		v576.1h-128V768.2h1152.2v-64.2H2194.7v-256h64.2V384h-128v256H1907v1280.2h-64.5v64.2h1984.3v-64.2H3762.6z M3538.7,704.1h160.1
		v1216h-160.1V704.1z M3282.8,1920.1h-416v-575.8h416V1920.1z M2322.7,1216h1024.2v64.2H2322.7V1216z M2386.5,1344.3h416v576.1h-416
		V1344.3z M1970.5,704.1h160.1v1216h-160.1V704.1z"/>
	<path fill="#FFFFFF" d="M2834.6,544c272.8,0,376.3-201.1,380.6-209.7l7.3-14.2l-7.3-14.2c-4.3-8.6-107.8-210-380.6-210
		S2458.3,297.3,2454,305.6l-7.3,14.2l7.3,14.2C2458.3,342.9,2561.8,544,2834.6,544z M2674.6,320.1c0-88.3,71.8-160.1,160.1-160.1
		s160.1,71.8,160.1,160.1s-71.8,160.1-160.1,160.1S2674.6,408.4,2674.6,320.1z M3149.5,319.8c-15.5,24.1-53.9,73.7-120.7,111.4
		c18.9-32.7,29.8-70.8,29.8-111.4c0-41-11.2-79-30.4-112.1C3095.6,245.7,3133.9,295.7,3149.5,319.8z M2640.5,208.7
		c-18.9,32.7-29.8,70.8-29.8,111.4c0,41,11.2,79,30.4,112.1c-67.1-37.7-105.5-87.6-121.4-112.1
		C2535.4,296,2573.7,246.4,2640.5,208.7z"/>
	<path d="M2258.6,1088h1152.2v-256H2258.6V1088z M2642.5,1024.2v-128h384v128H2642.5z M3346.6,1024.2h-256v-128h256V1024.2z
		 M2322.7,896.2h256v128h-256L2322.7,896.2L2322.7,896.2z"/>
</g>
</svg>
